<?xml version="1.0" encoding="UTF-8" standalone="no"?>
<!DOCTYPE svg PUBLIC "-//W3C//DTD SVG 1.1//EN"
 "http://www.w3.org/Graphics/SVG/1.1/DTD/svg11.dtd">
<!-- Generated by graphviz version 2.38.0 (20140413.2041)
 -->
<!-- Title: controllers_diagram Pages: 1 -->
<svg width="604pt" height="551pt"
 viewBox="0.00 0.00 604.30 551.00" xmlns="http://www.w3.org/2000/svg" xmlns:xlink="http://www.w3.org/1999/xlink">
<g id="graph0" class="graph" transform="scale(1 1) rotate(0) translate(229.324 322.5)">
<title>controllers_diagram</title>
<polygon fill="none" stroke="none" points="-229.324,228.5 -229.324,-322.5 374.974,-322.5 374.974,228.5 -229.324,228.5"/>
<!-- _diagram_info -->
<g id="node1" class="node"><title>_diagram_info</title>
<text text-anchor="start" x="173.026" y="-224.1" font-family="Times,serif" font-size="13.00">Controllers diagram</text>
<text text-anchor="start" x="173.026" y="-211.1" font-family="Times,serif" font-size="13.00">Date: Nov 22 2015 &#45; 16:06</text>
<text text-anchor="start" x="173.026" y="-198.1" font-family="Times,serif" font-size="13.00">Migration version: 20151117011217</text>
<text text-anchor="start" x="173.026" y="-185.1" font-family="Times,serif" font-size="13.00">Generated by RailRoady 1.4.1</text>
<text text-anchor="start" x="173.026" y="-172.1" font-family="Times,serif" font-size="13.00">http://railroady.prestonlee.com</text>
</g>
<!-- ApplicationController -->
<g id="node2" class="node"><title>ApplicationController</title>
<path fill="none" stroke="black" d="M-78.3691,-121C-78.3691,-121 54.3691,-121 54.3691,-121 60.3691,-121 66.3691,-127 66.3691,-133 66.3691,-133 66.3691,-255 66.3691,-255 66.3691,-261 60.3691,-267 54.3691,-267 54.3691,-267 -78.3691,-267 -78.3691,-267 -84.3691,-267 -90.3691,-261 -90.3691,-255 -90.3691,-255 -90.3691,-133 -90.3691,-133 -90.3691,-127 -84.3691,-121 -78.3691,-121"/>
<text text-anchor="middle" x="-12" y="-251.8" font-family="Times,serif" font-size="14.00">ApplicationController</text>
<polyline fill="none" stroke="black" points="-90.3691,-245 66.3691,-245 "/>
<text text-anchor="start" x="-82.3691" y="-229.8" font-family="Times,serif" font-size="14.00">authenticate_user</text>
<text text-anchor="start" x="-82.3691" y="-215.8" font-family="Times,serif" font-size="14.00">current_user</text>
<text text-anchor="start" x="-82.3691" y="-201.8" font-family="Times,serif" font-size="14.00">get_categories</text>
<text text-anchor="start" x="-82.3691" y="-187.8" font-family="Times,serif" font-size="14.00">get_category_post_count</text>
<text text-anchor="start" x="-82.3691" y="-173.8" font-family="Times,serif" font-size="14.00">user_signed_in?</text>
<polyline fill="none" stroke="black" points="-90.3691,-167 66.3691,-167 "/>
<polyline fill="none" stroke="black" points="-90.3691,-143 66.3691,-143 "/>
<text text-anchor="start" x="-82.3691" y="-127.8" font-family="Times,serif" font-size="14.00">_layout</text>
</g>
<!-- CategoriesController -->
<g id="node3" class="node"><title>CategoriesController</title>
<path fill="none" stroke="black" d="M237.293,224C237.293,224 346.707,224 346.707,224 352.707,224 358.707,218 358.707,212 358.707,212 358.707,90 358.707,90 358.707,84 352.707,78 346.707,78 346.707,78 237.293,78 237.293,78 231.293,78 225.293,84 225.293,90 225.293,90 225.293,212 225.293,212 225.293,218 231.293,224 237.293,224"/>
<text text-anchor="middle" x="292" y="93.2" font-family="Times,serif" font-size="14.00">CategoriesController</text>
<polyline fill="none" stroke="black" points="225.293,100 358.707,100 "/>
<text text-anchor="start" x="233.293" y="115.2" font-family="Times,serif" font-size="14.00">create</text>
<text text-anchor="start" x="233.293" y="129.2" font-family="Times,serif" font-size="14.00">edit</text>
<text text-anchor="start" x="233.293" y="143.2" font-family="Times,serif" font-size="14.00">new</text>
<text text-anchor="start" x="233.293" y="157.2" font-family="Times,serif" font-size="14.00">show</text>
<text text-anchor="start" x="233.293" y="171.2" font-family="Times,serif" font-size="14.00">update</text>
<polyline fill="none" stroke="black" points="225.293,178 358.707,178 "/>
<polyline fill="none" stroke="black" points="225.293,202 358.707,202 "/>
<text text-anchor="start" x="233.293" y="217.2" font-family="Times,serif" font-size="14.00">_layout</text>
</g>
<!-- CommentsController -->
<g id="node4" class="node"><title>CommentsController</title>
<path fill="none" stroke="black" d="M-63.1069,104C-63.1069,104 47.1069,104 47.1069,104 53.1069,104 59.1069,98 59.1069,92 59.1069,92 59.1069,-72 59.1069,-72 59.1069,-78 53.1069,-84 47.1069,-84 47.1069,-84 -63.1069,-84 -63.1069,-84 -69.1069,-84 -75.1069,-78 -75.1069,-72 -75.1069,-72 -75.1069,92 -75.1069,92 -75.1069,98 -69.1069,104 -63.1069,104"/>
<text text-anchor="middle" x="-8" y="-68.8" font-family="Times,serif" font-size="14.00">CommentsController</text>
<polyline fill="none" stroke="black" points="-75.1069,-62 59.1069,-62 "/>
<text text-anchor="start" x="-67.1069" y="-46.8" font-family="Times,serif" font-size="14.00">create</text>
<text text-anchor="start" x="-67.1069" y="-32.8" font-family="Times,serif" font-size="14.00">destroy</text>
<text text-anchor="start" x="-67.1069" y="-18.8" font-family="Times,serif" font-size="14.00">edit</text>
<text text-anchor="start" x="-67.1069" y="-4.8" font-family="Times,serif" font-size="14.00">show</text>
<text text-anchor="start" x="-67.1069" y="9.2" font-family="Times,serif" font-size="14.00">update</text>
<polyline fill="none" stroke="black" points="-75.1069,16 59.1069,16 "/>
<polyline fill="none" stroke="black" points="-75.1069,40 59.1069,40 "/>
<text text-anchor="start" x="-67.1069" y="55.2" font-family="Times,serif" font-size="14.00">_layout</text>
<text text-anchor="start" x="-67.1069" y="69.2" font-family="Times,serif" font-size="14.00">authorize</text>
<text text-anchor="start" x="-67.1069" y="83.2" font-family="Times,serif" font-size="14.00">comment_params</text>
<text text-anchor="start" x="-67.1069" y="97.2" font-family="Times,serif" font-size="14.00">find_comment</text>
</g>
<!-- FavouritesController -->
<g id="node5" class="node"><title>FavouritesController</title>
<path fill="none" stroke="black" d="M11.6758,224C11.6758,224 120.324,224 120.324,224 126.324,224 132.324,218 132.324,212 132.324,212 132.324,144 132.324,144 132.324,138 126.324,132 120.324,132 120.324,132 11.6758,132 11.6758,132 5.67578,132 -0.324219,138 -0.324219,144 -0.324219,144 -0.324219,212 -0.324219,212 -0.324219,218 5.67578,224 11.6758,224"/>
<text text-anchor="middle" x="66" y="147.2" font-family="Times,serif" font-size="14.00">FavouritesController</text>
<polyline fill="none" stroke="black" points="-0.324219,154 132.324,154 "/>
<polyline fill="none" stroke="black" points="-0.324219,178 132.324,178 "/>
<polyline fill="none" stroke="black" points="-0.324219,202 132.324,202 "/>
<text text-anchor="start" x="7.67578" y="217.2" font-family="Times,serif" font-size="14.00">_layout</text>
</g>
<!-- HomeController -->
<g id="node6" class="node"><title>HomeController</title>
<path fill="none" stroke="black" d="M-197.879,149C-197.879,149 -114.121,149 -114.121,149 -108.121,149 -102.121,143 -102.121,137 -102.121,137 -102.121,57 -102.121,57 -102.121,51 -108.121,45 -114.121,45 -114.121,45 -197.879,45 -197.879,45 -203.879,45 -209.879,51 -209.879,57 -209.879,57 -209.879,137 -209.879,137 -209.879,143 -203.879,149 -197.879,149"/>
<text text-anchor="middle" x="-156" y="60.2" font-family="Times,serif" font-size="14.00">HomeController</text>
<polyline fill="none" stroke="black" points="-209.879,67 -102.121,67 "/>
<text text-anchor="start" x="-201.879" y="82.2" font-family="Times,serif" font-size="14.00">home</text>
<text text-anchor="start" x="-201.879" y="96.2" font-family="Times,serif" font-size="14.00">web_developer</text>
<polyline fill="none" stroke="black" points="-209.879,103 -102.121,103 "/>
<polyline fill="none" stroke="black" points="-209.879,127 -102.121,127 "/>
<text text-anchor="start" x="-201.879" y="142.2" font-family="Times,serif" font-size="14.00">_layout</text>
</g>
<!-- LikesController -->
<g id="node7" class="node"><title>LikesController</title>
<path fill="none" stroke="black" d="M-213.324,-226C-213.324,-226 -132.676,-226 -132.676,-226 -126.676,-226 -120.676,-232 -120.676,-238 -120.676,-238 -120.676,-306 -120.676,-306 -120.676,-312 -126.676,-318 -132.676,-318 -132.676,-318 -213.324,-318 -213.324,-318 -219.324,-318 -225.324,-312 -225.324,-306 -225.324,-306 -225.324,-238 -225.324,-238 -225.324,-232 -219.324,-226 -213.324,-226"/>
<text text-anchor="middle" x="-173" y="-302.8" font-family="Times,serif" font-size="14.00">LikesController</text>
<polyline fill="none" stroke="black" points="-225.324,-296 -120.676,-296 "/>
<polyline fill="none" stroke="black" points="-225.324,-272 -120.676,-272 "/>
<polyline fill="none" stroke="black" points="-225.324,-248 -120.676,-248 "/>
<text text-anchor="start" x="-217.324" y="-232.8" font-family="Times,serif" font-size="14.00">_layout</text>
</g>
<!-- PostsController -->
<g id="node8" class="node"><title>PostsController</title>
<path fill="none" stroke="black" d="M102.441,89C102.441,89 181.559,89 181.559,89 187.559,89 193.559,83 193.559,77 193.559,77 193.559,-115 193.559,-115 193.559,-121 187.559,-127 181.559,-127 181.559,-127 102.441,-127 102.441,-127 96.4414,-127 90.4414,-121 90.4414,-115 90.4414,-115 90.4414,77 90.4414,77 90.4414,83 96.4414,89 102.441,89"/>
<text text-anchor="middle" x="142" y="-111.8" font-family="Times,serif" font-size="14.00">PostsController</text>
<polyline fill="none" stroke="black" points="90.4414,-105 193.559,-105 "/>
<text text-anchor="start" x="98.4414" y="-89.8" font-family="Times,serif" font-size="14.00">create</text>
<text text-anchor="start" x="98.4414" y="-75.8" font-family="Times,serif" font-size="14.00">destroy</text>
<text text-anchor="start" x="98.4414" y="-61.8" font-family="Times,serif" font-size="14.00">edit</text>
<text text-anchor="start" x="98.4414" y="-47.8" font-family="Times,serif" font-size="14.00">index</text>
<text text-anchor="start" x="98.4414" y="-33.8" font-family="Times,serif" font-size="14.00">new</text>
<text text-anchor="start" x="98.4414" y="-19.8" font-family="Times,serif" font-size="14.00">show</text>
<text text-anchor="start" x="98.4414" y="-5.8" font-family="Times,serif" font-size="14.00">update</text>
<polyline fill="none" stroke="black" points="90.4414,1 193.559,1 "/>
<polyline fill="none" stroke="black" points="90.4414,25 193.559,25 "/>
<text text-anchor="start" x="98.4414" y="40.2" font-family="Times,serif" font-size="14.00">_layout</text>
<text text-anchor="start" x="98.4414" y="54.2" font-family="Times,serif" font-size="14.00">authorize</text>
<text text-anchor="start" x="98.4414" y="68.2" font-family="Times,serif" font-size="14.00">find_post</text>
<text text-anchor="start" x="98.4414" y="82.2" font-family="Times,serif" font-size="14.00">post_params</text>
</g>
<!-- SessionsController -->
<g id="node9" class="node"><title>SessionsController</title>
<path fill="none" stroke="black" d="M237.11,44C237.11,44 334.89,44 334.89,44 340.89,44 346.89,38 346.89,32 346.89,32 346.89,-62 346.89,-62 346.89,-68 340.89,-74 334.89,-74 334.89,-74 237.11,-74 237.11,-74 231.11,-74 225.11,-68 225.11,-62 225.11,-62 225.11,32 225.11,32 225.11,38 231.11,44 237.11,44"/>
<text text-anchor="middle" x="286" y="-58.8" font-family="Times,serif" font-size="14.00">SessionsController</text>
<polyline fill="none" stroke="black" points="225.11,-52 346.89,-52 "/>
<text text-anchor="start" x="233.11" y="-36.8" font-family="Times,serif" font-size="14.00">create</text>
<text text-anchor="start" x="233.11" y="-22.8" font-family="Times,serif" font-size="14.00">destroy</text>
<text text-anchor="start" x="233.11" y="-8.8" font-family="Times,serif" font-size="14.00">new</text>
<polyline fill="none" stroke="black" points="225.11,-2 346.89,-2 "/>
<polyline fill="none" stroke="black" points="225.11,22 346.89,22 "/>
<text text-anchor="start" x="233.11" y="37.2" font-family="Times,serif" font-size="14.00">_layout</text>
</g>
<!-- UsersController -->
<g id="node10" class="node"><title>UsersController</title>
<path fill="none" stroke="black" d="M-197.714,14C-197.714,14 -116.286,14 -116.286,14 -110.286,14 -104.286,8 -104.286,2 -104.286,2 -104.286,-78 -104.286,-78 -104.286,-84 -110.286,-90 -116.286,-90 -116.286,-90 -197.714,-90 -197.714,-90 -203.714,-90 -209.714,-84 -209.714,-78 -209.714,-78 -209.714,2 -209.714,2 -209.714,8 -203.714,14 -197.714,14"/>
<text text-anchor="middle" x="-157" y="-74.8" font-family="Times,serif" font-size="14.00">UsersController</text>
<polyline fill="none" stroke="black" points="-209.714,-68 -104.286,-68 "/>
<text text-anchor="start" x="-201.714" y="-52.8" font-family="Times,serif" font-size="14.00">create</text>
<text text-anchor="start" x="-201.714" y="-38.8" font-family="Times,serif" font-size="14.00">new</text>
<polyline fill="none" stroke="black" points="-209.714,-32 -104.286,-32 "/>
<polyline fill="none" stroke="black" points="-209.714,-8 -104.286,-8 "/>
<text text-anchor="start" x="-201.714" y="7.2" font-family="Times,serif" font-size="14.00">_layout</text>
</g>
</g>
</svg>
