<?xml version="1.0" encoding="UTF-8" standalone="no"?>
<!DOCTYPE svg PUBLIC "-//W3C//DTD SVG 1.1//EN"
 "http://www.w3.org/Graphics/SVG/1.1/DTD/svg11.dtd">
<!-- Generated by graphviz version 2.38.0 (20140413.2041)
 -->
<!-- Title: controllers_diagram Pages: 1 -->
<svg width="576pt" height="517pt"
 viewBox="0.00 0.00 576.42 517.00" xmlns="http://www.w3.org/2000/svg" xmlns:xlink="http://www.w3.org/1999/xlink">
<g id="graph0" class="graph" transform="scale(1 1) rotate(0) translate(213.714 288.5)">
<title>controllers_diagram</title>
<polygon fill="none" stroke="none" points="-213.714,228.5 -213.714,-288.5 362.707,-288.5 362.707,228.5 -213.714,228.5"/>
<!-- _diagram_info -->
<g id="node1" class="node"><title>_diagram_info</title>
<text text-anchor="start" x="-142.212" y="-209.1" font-family="Times,serif" font-size="13.00">Controllers diagram</text>
<text text-anchor="start" x="-142.212" y="-196.1" font-family="Times,serif" font-size="13.00">Date: Nov 13 2015 &#45; 15:43</text>
<text text-anchor="start" x="-142.212" y="-183.1" font-family="Times,serif" font-size="13.00">Migration version: 20151112032659</text>
<text text-anchor="start" x="-142.212" y="-170.1" font-family="Times,serif" font-size="13.00">Generated by RailRoady 1.4.1</text>
<text text-anchor="start" x="-142.212" y="-157.1" font-family="Times,serif" font-size="13.00">http://railroady.prestonlee.com</text>
</g>
<!-- ApplicationController -->
<g id="node2" class="node"><title>ApplicationController</title>
<path fill="none" stroke="black" d="M177.179,-166C177.179,-166 292.821,-166 292.821,-166 298.821,-166 304.821,-172 304.821,-178 304.821,-178 304.821,-272 304.821,-272 304.821,-278 298.821,-284 292.821,-284 292.821,-284 177.179,-284 177.179,-284 171.179,-284 165.179,-278 165.179,-272 165.179,-272 165.179,-178 165.179,-178 165.179,-172 171.179,-166 177.179,-166"/>
<text text-anchor="middle" x="235" y="-268.8" font-family="Times,serif" font-size="14.00">ApplicationController</text>
<polyline fill="none" stroke="black" points="165.179,-262 304.821,-262 "/>
<text text-anchor="start" x="173.179" y="-246.8" font-family="Times,serif" font-size="14.00">authenticate_user</text>
<text text-anchor="start" x="173.179" y="-232.8" font-family="Times,serif" font-size="14.00">current_user</text>
<text text-anchor="start" x="173.179" y="-218.8" font-family="Times,serif" font-size="14.00">user_signed_in?</text>
<polyline fill="none" stroke="black" points="165.179,-212 304.821,-212 "/>
<polyline fill="none" stroke="black" points="165.179,-188 304.821,-188 "/>
<text text-anchor="start" x="173.179" y="-172.8" font-family="Times,serif" font-size="14.00">_layout</text>
</g>
<!-- CategoriesController -->
<g id="node3" class="node"><title>CategoriesController</title>
<path fill="none" stroke="black" d="M237.293,224C237.293,224 346.707,224 346.707,224 352.707,224 358.707,218 358.707,212 358.707,212 358.707,104 358.707,104 358.707,98 352.707,92 346.707,92 346.707,92 237.293,92 237.293,92 231.293,92 225.293,98 225.293,104 225.293,104 225.293,212 225.293,212 225.293,218 231.293,224 237.293,224"/>
<text text-anchor="middle" x="292" y="107.2" font-family="Times,serif" font-size="14.00">CategoriesController</text>
<polyline fill="none" stroke="black" points="225.293,114 358.707,114 "/>
<text text-anchor="start" x="233.293" y="129.2" font-family="Times,serif" font-size="14.00">create</text>
<text text-anchor="start" x="233.293" y="143.2" font-family="Times,serif" font-size="14.00">edit</text>
<text text-anchor="start" x="233.293" y="157.2" font-family="Times,serif" font-size="14.00">new</text>
<text text-anchor="start" x="233.293" y="171.2" font-family="Times,serif" font-size="14.00">update</text>
<polyline fill="none" stroke="black" points="225.293,178 358.707,178 "/>
<polyline fill="none" stroke="black" points="225.293,202 358.707,202 "/>
<text text-anchor="start" x="233.293" y="217.2" font-family="Times,serif" font-size="14.00">_layout</text>
</g>
<!-- CommentsController -->
<g id="node4" class="node"><title>CommentsController</title>
<path fill="none" stroke="black" d="M-63.1069,89C-63.1069,89 47.1069,89 47.1069,89 53.1069,89 59.1069,83 59.1069,77 59.1069,77 59.1069,-73 59.1069,-73 59.1069,-79 53.1069,-85 47.1069,-85 47.1069,-85 -63.1069,-85 -63.1069,-85 -69.1069,-85 -75.1069,-79 -75.1069,-73 -75.1069,-73 -75.1069,77 -75.1069,77 -75.1069,83 -69.1069,89 -63.1069,89"/>
<text text-anchor="middle" x="-8" y="-69.8" font-family="Times,serif" font-size="14.00">CommentsController</text>
<polyline fill="none" stroke="black" points="-75.1069,-63 59.1069,-63 "/>
<text text-anchor="start" x="-67.1069" y="-47.8" font-family="Times,serif" font-size="14.00">create</text>
<text text-anchor="start" x="-67.1069" y="-33.8" font-family="Times,serif" font-size="14.00">destroy</text>
<text text-anchor="start" x="-67.1069" y="-19.8" font-family="Times,serif" font-size="14.00">edit</text>
<text text-anchor="start" x="-67.1069" y="-5.8" font-family="Times,serif" font-size="14.00">show</text>
<text text-anchor="start" x="-67.1069" y="8.2" font-family="Times,serif" font-size="14.00">update</text>
<polyline fill="none" stroke="black" points="-75.1069,15 59.1069,15 "/>
<polyline fill="none" stroke="black" points="-75.1069,39 59.1069,39 "/>
<text text-anchor="start" x="-67.1069" y="54.2" font-family="Times,serif" font-size="14.00">_layout</text>
<text text-anchor="start" x="-67.1069" y="68.2" font-family="Times,serif" font-size="14.00">comment_params</text>
<text text-anchor="start" x="-67.1069" y="82.2" font-family="Times,serif" font-size="14.00">find_comment</text>
</g>
<!-- HomeController -->
<g id="node5" class="node"><title>HomeController</title>
<path fill="none" stroke="black" d="M12.1206,209C12.1206,209 95.8794,209 95.8794,209 101.879,209 107.879,203 107.879,197 107.879,197 107.879,131 107.879,131 107.879,125 101.879,119 95.8794,119 95.8794,119 12.1206,119 12.1206,119 6.12061,119 0.120605,125 0.120605,131 0.120605,131 0.120605,197 0.120605,197 0.120605,203 6.12061,209 12.1206,209"/>
<text text-anchor="middle" x="54" y="134.2" font-family="Times,serif" font-size="14.00">HomeController</text>
<polyline fill="none" stroke="black" points="0.120605,141 107.879,141 "/>
<text text-anchor="start" x="8.12061" y="156.2" font-family="Times,serif" font-size="14.00">home</text>
<polyline fill="none" stroke="black" points="0.120605,163 107.879,163 "/>
<polyline fill="none" stroke="black" points="0.120605,187 107.879,187 "/>
<text text-anchor="start" x="8.12061" y="202.2" font-family="Times,serif" font-size="14.00">_layout</text>
</g>
<!-- PostsController -->
<g id="node6" class="node"><title>PostsController</title>
<path fill="none" stroke="black" d="M102.441,89C102.441,89 181.559,89 181.559,89 187.559,89 193.559,83 193.559,77 193.559,77 193.559,-115 193.559,-115 193.559,-121 187.559,-127 181.559,-127 181.559,-127 102.441,-127 102.441,-127 96.4414,-127 90.4414,-121 90.4414,-115 90.4414,-115 90.4414,77 90.4414,77 90.4414,83 96.4414,89 102.441,89"/>
<text text-anchor="middle" x="142" y="-111.8" font-family="Times,serif" font-size="14.00">PostsController</text>
<polyline fill="none" stroke="black" points="90.4414,-105 193.559,-105 "/>
<text text-anchor="start" x="98.4414" y="-89.8" font-family="Times,serif" font-size="14.00">create</text>
<text text-anchor="start" x="98.4414" y="-75.8" font-family="Times,serif" font-size="14.00">destroy</text>
<text text-anchor="start" x="98.4414" y="-61.8" font-family="Times,serif" font-size="14.00">edit</text>
<text text-anchor="start" x="98.4414" y="-47.8" font-family="Times,serif" font-size="14.00">index</text>
<text text-anchor="start" x="98.4414" y="-33.8" font-family="Times,serif" font-size="14.00">new</text>
<text text-anchor="start" x="98.4414" y="-19.8" font-family="Times,serif" font-size="14.00">show</text>
<text text-anchor="start" x="98.4414" y="-5.8" font-family="Times,serif" font-size="14.00">update</text>
<polyline fill="none" stroke="black" points="90.4414,1 193.559,1 "/>
<polyline fill="none" stroke="black" points="90.4414,25 193.559,25 "/>
<text text-anchor="start" x="98.4414" y="40.2" font-family="Times,serif" font-size="14.00">_layout</text>
<text text-anchor="start" x="98.4414" y="54.2" font-family="Times,serif" font-size="14.00">authorize</text>
<text text-anchor="start" x="98.4414" y="68.2" font-family="Times,serif" font-size="14.00">find_post</text>
<text text-anchor="start" x="98.4414" y="82.2" font-family="Times,serif" font-size="14.00">post_params</text>
</g>
<!-- SessionsController -->
<g id="node7" class="node"><title>SessionsController</title>
<path fill="none" stroke="black" d="M237.11,59C237.11,59 334.89,59 334.89,59 340.89,59 346.89,53 346.89,47 346.89,47 346.89,-47 346.89,-47 346.89,-53 340.89,-59 334.89,-59 334.89,-59 237.11,-59 237.11,-59 231.11,-59 225.11,-53 225.11,-47 225.11,-47 225.11,47 225.11,47 225.11,53 231.11,59 237.11,59"/>
<text text-anchor="middle" x="286" y="-43.8" font-family="Times,serif" font-size="14.00">SessionsController</text>
<polyline fill="none" stroke="black" points="225.11,-37 346.89,-37 "/>
<text text-anchor="start" x="233.11" y="-21.8" font-family="Times,serif" font-size="14.00">create</text>
<text text-anchor="start" x="233.11" y="-7.8" font-family="Times,serif" font-size="14.00">destroy</text>
<text text-anchor="start" x="233.11" y="6.2" font-family="Times,serif" font-size="14.00">new</text>
<polyline fill="none" stroke="black" points="225.11,13 346.89,13 "/>
<polyline fill="none" stroke="black" points="225.11,37 346.89,37 "/>
<text text-anchor="start" x="233.11" y="52.2" font-family="Times,serif" font-size="14.00">_layout</text>
</g>
<!-- UsersController -->
<g id="node8" class="node"><title>UsersController</title>
<path fill="none" stroke="black" d="M-197.714,-16C-197.714,-16 -116.286,-16 -116.286,-16 -110.286,-16 -104.286,-22 -104.286,-28 -104.286,-28 -104.286,-108 -104.286,-108 -104.286,-114 -110.286,-120 -116.286,-120 -116.286,-120 -197.714,-120 -197.714,-120 -203.714,-120 -209.714,-114 -209.714,-108 -209.714,-108 -209.714,-28 -209.714,-28 -209.714,-22 -203.714,-16 -197.714,-16"/>
<text text-anchor="middle" x="-157" y="-104.8" font-family="Times,serif" font-size="14.00">UsersController</text>
<polyline fill="none" stroke="black" points="-209.714,-98 -104.286,-98 "/>
<text text-anchor="start" x="-201.714" y="-82.8" font-family="Times,serif" font-size="14.00">create</text>
<text text-anchor="start" x="-201.714" y="-68.8" font-family="Times,serif" font-size="14.00">new</text>
<polyline fill="none" stroke="black" points="-209.714,-62 -104.286,-62 "/>
<polyline fill="none" stroke="black" points="-209.714,-38 -104.286,-38 "/>
<text text-anchor="start" x="-201.714" y="-22.8" font-family="Times,serif" font-size="14.00">_layout</text>
</g>
</g>
</svg>
