<?xml version="1.0" encoding="UTF-8" standalone="no"?>
<!DOCTYPE svg PUBLIC "-//W3C//DTD SVG 1.1//EN"
 "http://www.w3.org/Graphics/SVG/1.1/DTD/svg11.dtd">
<!-- Generated by graphviz version 2.38.0 (20140413.2041)
 -->
<!-- Title: controllers_diagram Pages: 1 -->
<svg width="604pt" height="595pt"
 viewBox="0.00 0.00 604.20 595.00" xmlns="http://www.w3.org/2000/svg" xmlns:xlink="http://www.w3.org/1999/xlink">
<g id="graph0" class="graph" transform="scale(1 1) rotate(0) translate(259.879 351.5)">
<title>controllers_diagram</title>
<polygon fill="none" stroke="none" points="-259.879,243.5 -259.879,-351.5 344.324,-351.5 344.324,243.5 -259.879,243.5"/>
<!-- _diagram_info -->
<g id="node1" class="node"><title>_diagram_info</title>
<text text-anchor="start" x="87.5503" y="132.9" font-family="Times,serif" font-size="13.00">Controllers diagram</text>
<text text-anchor="start" x="87.5503" y="145.9" font-family="Times,serif" font-size="13.00">Date: Nov 24 2015 &#45; 14:37</text>
<text text-anchor="start" x="87.5503" y="158.9" font-family="Times,serif" font-size="13.00">Migration version: 20151123051335</text>
<text text-anchor="start" x="87.5503" y="171.9" font-family="Times,serif" font-size="13.00">Generated by RailRoady 1.4.1</text>
<text text-anchor="start" x="87.5503" y="184.9" font-family="Times,serif" font-size="13.00">http://railroady.prestonlee.com</text>
</g>
<!-- ApplicationController -->
<g id="node2" class="node"><title>ApplicationController</title>
<path fill="none" stroke="black" d="M-100.369,-129C-100.369,-129 32.3691,-129 32.3691,-129 38.3691,-129 44.3691,-135 44.3691,-141 44.3691,-141 44.3691,-263 44.3691,-263 44.3691,-269 38.3691,-275 32.3691,-275 32.3691,-275 -100.369,-275 -100.369,-275 -106.369,-275 -112.369,-269 -112.369,-263 -112.369,-263 -112.369,-141 -112.369,-141 -112.369,-135 -106.369,-129 -100.369,-129"/>
<text text-anchor="middle" x="-34" y="-259.8" font-family="Times,serif" font-size="14.00">ApplicationController</text>
<polyline fill="none" stroke="black" points="-112.369,-253 44.3691,-253 "/>
<text text-anchor="start" x="-104.369" y="-237.8" font-family="Times,serif" font-size="14.00">authenticate_user</text>
<text text-anchor="start" x="-104.369" y="-223.8" font-family="Times,serif" font-size="14.00">current_user</text>
<text text-anchor="start" x="-104.369" y="-209.8" font-family="Times,serif" font-size="14.00">get_categories</text>
<text text-anchor="start" x="-104.369" y="-195.8" font-family="Times,serif" font-size="14.00">get_category_post_count</text>
<text text-anchor="start" x="-104.369" y="-181.8" font-family="Times,serif" font-size="14.00">user_signed_in?</text>
<polyline fill="none" stroke="black" points="-112.369,-175 44.3691,-175 "/>
<polyline fill="none" stroke="black" points="-112.369,-151 44.3691,-151 "/>
<text text-anchor="start" x="-104.369" y="-135.8" font-family="Times,serif" font-size="14.00">_layout</text>
</g>
<!-- CategoriesController -->
<g id="node3" class="node"><title>CategoriesController</title>
<path fill="none" stroke="black" d="M188.293,-177C188.293,-177 297.707,-177 297.707,-177 303.707,-177 309.707,-183 309.707,-189 309.707,-189 309.707,-311 309.707,-311 309.707,-317 303.707,-323 297.707,-323 297.707,-323 188.293,-323 188.293,-323 182.293,-323 176.293,-317 176.293,-311 176.293,-311 176.293,-189 176.293,-189 176.293,-183 182.293,-177 188.293,-177"/>
<text text-anchor="middle" x="243" y="-307.8" font-family="Times,serif" font-size="14.00">CategoriesController</text>
<polyline fill="none" stroke="black" points="176.293,-301 309.707,-301 "/>
<text text-anchor="start" x="184.293" y="-285.8" font-family="Times,serif" font-size="14.00">create</text>
<text text-anchor="start" x="184.293" y="-271.8" font-family="Times,serif" font-size="14.00">edit</text>
<text text-anchor="start" x="184.293" y="-257.8" font-family="Times,serif" font-size="14.00">new</text>
<text text-anchor="start" x="184.293" y="-243.8" font-family="Times,serif" font-size="14.00">show</text>
<text text-anchor="start" x="184.293" y="-229.8" font-family="Times,serif" font-size="14.00">update</text>
<polyline fill="none" stroke="black" points="176.293,-223 309.707,-223 "/>
<polyline fill="none" stroke="black" points="176.293,-199 309.707,-199 "/>
<text text-anchor="start" x="184.293" y="-183.8" font-family="Times,serif" font-size="14.00">_layout</text>
</g>
<!-- CommentsController -->
<g id="node4" class="node"><title>CommentsController</title>
<path fill="none" stroke="black" d="M-68.1069,95C-68.1069,95 42.1069,95 42.1069,95 48.1069,95 54.1069,89 54.1069,83 54.1069,83 54.1069,-81 54.1069,-81 54.1069,-87 48.1069,-93 42.1069,-93 42.1069,-93 -68.1069,-93 -68.1069,-93 -74.1069,-93 -80.1069,-87 -80.1069,-81 -80.1069,-81 -80.1069,83 -80.1069,83 -80.1069,89 -74.1069,95 -68.1069,95"/>
<text text-anchor="middle" x="-13" y="-77.8" font-family="Times,serif" font-size="14.00">CommentsController</text>
<polyline fill="none" stroke="black" points="-80.1069,-71 54.1069,-71 "/>
<text text-anchor="start" x="-72.1069" y="-55.8" font-family="Times,serif" font-size="14.00">create</text>
<text text-anchor="start" x="-72.1069" y="-41.8" font-family="Times,serif" font-size="14.00">destroy</text>
<text text-anchor="start" x="-72.1069" y="-27.8" font-family="Times,serif" font-size="14.00">edit</text>
<text text-anchor="start" x="-72.1069" y="-13.8" font-family="Times,serif" font-size="14.00">show</text>
<text text-anchor="start" x="-72.1069" y="0.2" font-family="Times,serif" font-size="14.00">update</text>
<polyline fill="none" stroke="black" points="-80.1069,7 54.1069,7 "/>
<polyline fill="none" stroke="black" points="-80.1069,31 54.1069,31 "/>
<text text-anchor="start" x="-72.1069" y="46.2" font-family="Times,serif" font-size="14.00">_layout</text>
<text text-anchor="start" x="-72.1069" y="60.2" font-family="Times,serif" font-size="14.00">authorize</text>
<text text-anchor="start" x="-72.1069" y="74.2" font-family="Times,serif" font-size="14.00">comment_params</text>
<text text-anchor="start" x="-72.1069" y="88.2" font-family="Times,serif" font-size="14.00">find_comment</text>
</g>
<!-- FavouritesController -->
<g id="node5" class="node"><title>FavouritesController</title>
<path fill="none" stroke="black" d="M219.676,79C219.676,79 328.324,79 328.324,79 334.324,79 340.324,73 340.324,67 340.324,67 340.324,-13 340.324,-13 340.324,-19 334.324,-25 328.324,-25 328.324,-25 219.676,-25 219.676,-25 213.676,-25 207.676,-19 207.676,-13 207.676,-13 207.676,67 207.676,67 207.676,73 213.676,79 219.676,79"/>
<text text-anchor="middle" x="274" y="-9.8" font-family="Times,serif" font-size="14.00">FavouritesController</text>
<polyline fill="none" stroke="black" points="207.676,-3 340.324,-3 "/>
<text text-anchor="start" x="215.676" y="12.2" font-family="Times,serif" font-size="14.00">create</text>
<text text-anchor="start" x="215.676" y="26.2" font-family="Times,serif" font-size="14.00">destroy</text>
<polyline fill="none" stroke="black" points="207.676,33 340.324,33 "/>
<polyline fill="none" stroke="black" points="207.676,57 340.324,57 "/>
<text text-anchor="start" x="215.676" y="72.2" font-family="Times,serif" font-size="14.00">_layout</text>
</g>
<!-- HomeController -->
<g id="node6" class="node"><title>HomeController</title>
<path fill="none" stroke="black" d="M-243.879,-257C-243.879,-257 -160.121,-257 -160.121,-257 -154.121,-257 -148.121,-263 -148.121,-269 -148.121,-269 -148.121,-335 -148.121,-335 -148.121,-341 -154.121,-347 -160.121,-347 -160.121,-347 -243.879,-347 -243.879,-347 -249.879,-347 -255.879,-341 -255.879,-335 -255.879,-335 -255.879,-269 -255.879,-269 -255.879,-263 -249.879,-257 -243.879,-257"/>
<text text-anchor="middle" x="-202" y="-331.8" font-family="Times,serif" font-size="14.00">HomeController</text>
<polyline fill="none" stroke="black" points="-255.879,-325 -148.121,-325 "/>
<text text-anchor="start" x="-247.879" y="-309.8" font-family="Times,serif" font-size="14.00">home</text>
<polyline fill="none" stroke="black" points="-255.879,-303 -148.121,-303 "/>
<polyline fill="none" stroke="black" points="-255.879,-279 -148.121,-279 "/>
<text text-anchor="start" x="-247.879" y="-263.8" font-family="Times,serif" font-size="14.00">_layout</text>
</g>
<!-- LikesController -->
<g id="node7" class="node"><title>LikesController</title>
<path fill="none" stroke="black" d="M-68.3242,239C-68.3242,239 12.3242,239 12.3242,239 18.3242,239 24.3242,233 24.3242,227 24.3242,227 24.3242,147 24.3242,147 24.3242,141 18.3242,135 12.3242,135 12.3242,135 -68.3242,135 -68.3242,135 -74.3242,135 -80.3242,141 -80.3242,147 -80.3242,147 -80.3242,227 -80.3242,227 -80.3242,233 -74.3242,239 -68.3242,239"/>
<text text-anchor="middle" x="-28" y="150.2" font-family="Times,serif" font-size="14.00">LikesController</text>
<polyline fill="none" stroke="black" points="-80.3242,157 24.3242,157 "/>
<text text-anchor="start" x="-72.3242" y="172.2" font-family="Times,serif" font-size="14.00">create</text>
<text text-anchor="start" x="-72.3242" y="186.2" font-family="Times,serif" font-size="14.00">destroy</text>
<polyline fill="none" stroke="black" points="-80.3242,193 24.3242,193 "/>
<polyline fill="none" stroke="black" points="-80.3242,217 24.3242,217 "/>
<text text-anchor="start" x="-72.3242" y="232.2" font-family="Times,serif" font-size="14.00">_layout</text>
</g>
<!-- PostsController -->
<g id="node8" class="node"><title>PostsController</title>
<path fill="none" stroke="black" d="M92.4414,79C92.4414,79 171.559,79 171.559,79 177.559,79 183.559,73 183.559,67 183.559,67 183.559,-125 183.559,-125 183.559,-131 177.559,-137 171.559,-137 171.559,-137 92.4414,-137 92.4414,-137 86.4414,-137 80.4414,-131 80.4414,-125 80.4414,-125 80.4414,67 80.4414,67 80.4414,73 86.4414,79 92.4414,79"/>
<text text-anchor="middle" x="132" y="-121.8" font-family="Times,serif" font-size="14.00">PostsController</text>
<polyline fill="none" stroke="black" points="80.4414,-115 183.559,-115 "/>
<text text-anchor="start" x="88.4414" y="-99.8" font-family="Times,serif" font-size="14.00">create</text>
<text text-anchor="start" x="88.4414" y="-85.8" font-family="Times,serif" font-size="14.00">destroy</text>
<text text-anchor="start" x="88.4414" y="-71.8" font-family="Times,serif" font-size="14.00">edit</text>
<text text-anchor="start" x="88.4414" y="-57.8" font-family="Times,serif" font-size="14.00">index</text>
<text text-anchor="start" x="88.4414" y="-43.8" font-family="Times,serif" font-size="14.00">new</text>
<text text-anchor="start" x="88.4414" y="-29.8" font-family="Times,serif" font-size="14.00">show</text>
<text text-anchor="start" x="88.4414" y="-15.8" font-family="Times,serif" font-size="14.00">update</text>
<polyline fill="none" stroke="black" points="80.4414,-9 183.559,-9 "/>
<polyline fill="none" stroke="black" points="80.4414,15 183.559,15 "/>
<text text-anchor="start" x="88.4414" y="30.2" font-family="Times,serif" font-size="14.00">_layout</text>
<text text-anchor="start" x="88.4414" y="44.2" font-family="Times,serif" font-size="14.00">authorize</text>
<text text-anchor="start" x="88.4414" y="58.2" font-family="Times,serif" font-size="14.00">find_post</text>
<text text-anchor="start" x="88.4414" y="72.2" font-family="Times,serif" font-size="14.00">post_params</text>
</g>
<!-- SessionsController -->
<g id="node9" class="node"><title>SessionsController</title>
<path fill="none" stroke="black" d="M-227.89,15C-227.89,15 -130.11,15 -130.11,15 -124.11,15 -118.11,9 -118.11,3 -118.11,3 -118.11,-91 -118.11,-91 -118.11,-97 -124.11,-103 -130.11,-103 -130.11,-103 -227.89,-103 -227.89,-103 -233.89,-103 -239.89,-97 -239.89,-91 -239.89,-91 -239.89,3 -239.89,3 -239.89,9 -233.89,15 -227.89,15"/>
<text text-anchor="middle" x="-179" y="-87.8" font-family="Times,serif" font-size="14.00">SessionsController</text>
<polyline fill="none" stroke="black" points="-239.89,-81 -118.11,-81 "/>
<text text-anchor="start" x="-231.89" y="-65.8" font-family="Times,serif" font-size="14.00">create</text>
<text text-anchor="start" x="-231.89" y="-51.8" font-family="Times,serif" font-size="14.00">destroy</text>
<text text-anchor="start" x="-231.89" y="-37.8" font-family="Times,serif" font-size="14.00">new</text>
<polyline fill="none" stroke="black" points="-239.89,-31 -118.11,-31 "/>
<polyline fill="none" stroke="black" points="-239.89,-7 -118.11,-7 "/>
<text text-anchor="start" x="-231.89" y="8.2" font-family="Times,serif" font-size="14.00">_layout</text>
</g>
<!-- UsersController -->
<g id="node10" class="node"><title>UsersController</title>
<path fill="none" stroke="black" d="M-211.714,159C-211.714,159 -130.286,159 -130.286,159 -124.286,159 -118.286,153 -118.286,147 -118.286,147 -118.286,67 -118.286,67 -118.286,61 -124.286,55 -130.286,55 -130.286,55 -211.714,55 -211.714,55 -217.714,55 -223.714,61 -223.714,67 -223.714,67 -223.714,147 -223.714,147 -223.714,153 -217.714,159 -211.714,159"/>
<text text-anchor="middle" x="-171" y="70.2" font-family="Times,serif" font-size="14.00">UsersController</text>
<polyline fill="none" stroke="black" points="-223.714,77 -118.286,77 "/>
<text text-anchor="start" x="-215.714" y="92.2" font-family="Times,serif" font-size="14.00">create</text>
<text text-anchor="start" x="-215.714" y="106.2" font-family="Times,serif" font-size="14.00">new</text>
<polyline fill="none" stroke="black" points="-223.714,113 -118.286,113 "/>
<polyline fill="none" stroke="black" points="-223.714,137 -118.286,137 "/>
<text text-anchor="start" x="-215.714" y="152.2" font-family="Times,serif" font-size="14.00">_layout</text>
</g>
</g>
</svg>
