<?xml version="1.0" encoding="UTF-8" standalone="no"?>
<!DOCTYPE svg PUBLIC "-//W3C//DTD SVG 1.1//EN"
 "http://www.w3.org/Graphics/SVG/1.1/DTD/svg11.dtd">
<!-- Generated by graphviz version 2.38.0 (20140413.2041)
 -->
<!-- Title: models_diagram Pages: 1 -->
<svg width="2416pt" height="646pt"
 viewBox="0.00 0.00 2415.84 646.00" xmlns="http://www.w3.org/2000/svg" xmlns:xlink="http://www.w3.org/1999/xlink">
<g id="graph0" class="graph" transform="scale(1 1) rotate(0) translate(4 642)">
<title>models_diagram</title>
<polygon fill="none" stroke="none" points="-4,4 -4,-642 2411.84,-642 2411.84,4 -4,4"/>
<!-- _diagram_info -->
<g id="node1" class="node"><title>_diagram_info</title>
<text text-anchor="start" x="8" y="-567.6" font-family="Times,serif" font-size="13.00">Models diagram</text>
<text text-anchor="start" x="8" y="-554.6" font-family="Times,serif" font-size="13.00">Date: Nov 22 2015 &#45; 16:06</text>
<text text-anchor="start" x="8" y="-541.6" font-family="Times,serif" font-size="13.00">Migration version: 20151117011217</text>
<text text-anchor="start" x="8" y="-528.6" font-family="Times,serif" font-size="13.00">Generated by RailRoady 1.4.1</text>
<text text-anchor="start" x="8" y="-515.6" font-family="Times,serif" font-size="13.00">http://railroady.prestonlee.com</text>
</g>
<!-- Ability -->
<g id="node2" class="node"><title>Ability</title>
<polygon fill="none" stroke="black" points="224.139,-523.5 224.139,-567.5 279.808,-567.5 279.808,-523.5 224.139,-523.5"/>
<text text-anchor="middle" x="251.974" y="-552.3" font-family="Times,serif" font-size="14.00">Ability</text>
<polyline fill="none" stroke="black" points="224.139,-545.5 279.808,-545.5 "/>
<text text-anchor="middle" x="251.974" y="-530.3" font-family="Times,serif" font-size="14.00"> </text>
</g>
<!-- Category -->
<g id="node3" class="node"><title>Category</title>
<path fill="none" stroke="black" d="M576.111,-502.5C576.111,-502.5 799.836,-502.5 799.836,-502.5 805.836,-502.5 811.836,-508.5 811.836,-514.5 811.836,-514.5 811.836,-576.5 811.836,-576.5 811.836,-582.5 805.836,-588.5 799.836,-588.5 799.836,-588.5 576.111,-588.5 576.111,-588.5 570.111,-588.5 564.111,-582.5 564.111,-576.5 564.111,-576.5 564.111,-514.5 564.111,-514.5 564.111,-508.5 570.111,-502.5 576.111,-502.5"/>
<text text-anchor="middle" x="687.974" y="-573.3" font-family="Times,serif" font-size="14.00">Category</text>
<polyline fill="none" stroke="black" points="564.111,-566.5 811.836,-566.5 "/>
<text text-anchor="start" x="572.111" y="-551.3" font-family="Times,serif" font-size="14.00">id :integer</text>
<text text-anchor="start" x="572.111" y="-537.3" font-family="Times,serif" font-size="14.00">title :character varying</text>
<text text-anchor="start" x="572.111" y="-523.3" font-family="Times,serif" font-size="14.00">created_at :timestamp without time zone</text>
<text text-anchor="start" x="572.111" y="-509.3" font-family="Times,serif" font-size="14.00">updated_at :timestamp without time zone</text>
</g>
<!-- Post -->
<g id="node11" class="node"><title>Post</title>
<path fill="none" stroke="black" d="M576.111,-288.5C576.111,-288.5 799.836,-288.5 799.836,-288.5 805.836,-288.5 811.836,-294.5 811.836,-300.5 811.836,-300.5 811.836,-404.5 811.836,-404.5 811.836,-410.5 805.836,-416.5 799.836,-416.5 799.836,-416.5 576.111,-416.5 576.111,-416.5 570.111,-416.5 564.111,-410.5 564.111,-404.5 564.111,-404.5 564.111,-300.5 564.111,-300.5 564.111,-294.5 570.111,-288.5 576.111,-288.5"/>
<text text-anchor="middle" x="687.974" y="-401.3" font-family="Times,serif" font-size="14.00">Post</text>
<polyline fill="none" stroke="black" points="564.111,-394.5 811.836,-394.5 "/>
<text text-anchor="start" x="572.111" y="-379.3" font-family="Times,serif" font-size="14.00">id :integer</text>
<text text-anchor="start" x="572.111" y="-365.3" font-family="Times,serif" font-size="14.00">title :character varying</text>
<text text-anchor="start" x="572.111" y="-351.3" font-family="Times,serif" font-size="14.00">body :text</text>
<text text-anchor="start" x="572.111" y="-337.3" font-family="Times,serif" font-size="14.00">created_at :timestamp without time zone</text>
<text text-anchor="start" x="572.111" y="-323.3" font-family="Times,serif" font-size="14.00">updated_at :timestamp without time zone</text>
<text text-anchor="start" x="572.111" y="-309.3" font-family="Times,serif" font-size="14.00">user_id :integer</text>
<text text-anchor="start" x="572.111" y="-295.3" font-family="Times,serif" font-size="14.00">category_id :integer</text>
</g>
<!-- Category&#45;&gt;Post -->
<g id="edge1" class="edge"><title>Category&#45;&gt;Post</title>
<path fill="none" stroke="#2efde6" d="M687.974,-493.957C687.974,-473.446 687.974,-449.351 687.974,-426.965"/>
<ellipse fill="none" stroke="#2efde6" cx="687.974" cy="-498.111" rx="4" ry="4"/>
<polygon fill="#2efde6" stroke="#2efde6" points="687.974,-426.818 692.474,-416.818 687.974,-421.818 687.974,-416.818 687.974,-416.818 687.974,-416.818 687.974,-421.818 683.474,-416.818 687.974,-426.818 687.974,-426.818"/>
</g>
<!-- Ckeditor::Asset -->
<g id="node4" class="node"><title>Ckeditor::Asset</title>
<path fill="none" stroke="black" d="M842.111,-453.5C842.111,-453.5 1065.84,-453.5 1065.84,-453.5 1071.84,-453.5 1077.84,-459.5 1077.84,-465.5 1077.84,-465.5 1077.84,-625.5 1077.84,-625.5 1077.84,-631.5 1071.84,-637.5 1065.84,-637.5 1065.84,-637.5 842.111,-637.5 842.111,-637.5 836.111,-637.5 830.111,-631.5 830.111,-625.5 830.111,-625.5 830.111,-465.5 830.111,-465.5 830.111,-459.5 836.111,-453.5 842.111,-453.5"/>
<text text-anchor="middle" x="953.974" y="-622.3" font-family="Times,serif" font-size="14.00">Ckeditor::Asset</text>
<polyline fill="none" stroke="black" points="830.111,-615.5 1077.84,-615.5 "/>
<text text-anchor="start" x="838.111" y="-600.3" font-family="Times,serif" font-size="14.00">id :integer</text>
<text text-anchor="start" x="838.111" y="-586.3" font-family="Times,serif" font-size="14.00">data_file_name :character varying</text>
<text text-anchor="start" x="838.111" y="-572.3" font-family="Times,serif" font-size="14.00">data_content_type :character varying</text>
<text text-anchor="start" x="838.111" y="-558.3" font-family="Times,serif" font-size="14.00">data_file_size :integer</text>
<text text-anchor="start" x="838.111" y="-544.3" font-family="Times,serif" font-size="14.00">assetable_id :integer</text>
<text text-anchor="start" x="838.111" y="-530.3" font-family="Times,serif" font-size="14.00">assetable_type :character varying(30)</text>
<text text-anchor="start" x="838.111" y="-516.3" font-family="Times,serif" font-size="14.00">type :character varying(30)</text>
<text text-anchor="start" x="838.111" y="-502.3" font-family="Times,serif" font-size="14.00">width :integer</text>
<text text-anchor="start" x="838.111" y="-488.3" font-family="Times,serif" font-size="14.00">height :integer</text>
<text text-anchor="start" x="838.111" y="-474.3" font-family="Times,serif" font-size="14.00">created_at :timestamp without time zone</text>
<text text-anchor="start" x="838.111" y="-460.3" font-family="Times,serif" font-size="14.00">updated_at :timestamp without time zone</text>
</g>
<!-- Ckeditor::AttachmentFile -->
<g id="node5" class="node"><title>Ckeditor::AttachmentFile</title>
<path fill="none" stroke="black" d="M1108.11,-453.5C1108.11,-453.5 1331.84,-453.5 1331.84,-453.5 1337.84,-453.5 1343.84,-459.5 1343.84,-465.5 1343.84,-465.5 1343.84,-625.5 1343.84,-625.5 1343.84,-631.5 1337.84,-637.5 1331.84,-637.5 1331.84,-637.5 1108.11,-637.5 1108.11,-637.5 1102.11,-637.5 1096.11,-631.5 1096.11,-625.5 1096.11,-625.5 1096.11,-465.5 1096.11,-465.5 1096.11,-459.5 1102.11,-453.5 1108.11,-453.5"/>
<text text-anchor="middle" x="1219.97" y="-622.3" font-family="Times,serif" font-size="14.00">Ckeditor::AttachmentFile</text>
<polyline fill="none" stroke="black" points="1096.11,-615.5 1343.84,-615.5 "/>
<text text-anchor="start" x="1104.11" y="-600.3" font-family="Times,serif" font-size="14.00">id :integer</text>
<text text-anchor="start" x="1104.11" y="-586.3" font-family="Times,serif" font-size="14.00">data_file_name :character varying</text>
<text text-anchor="start" x="1104.11" y="-572.3" font-family="Times,serif" font-size="14.00">data_content_type :character varying</text>
<text text-anchor="start" x="1104.11" y="-558.3" font-family="Times,serif" font-size="14.00">data_file_size :integer</text>
<text text-anchor="start" x="1104.11" y="-544.3" font-family="Times,serif" font-size="14.00">assetable_id :integer</text>
<text text-anchor="start" x="1104.11" y="-530.3" font-family="Times,serif" font-size="14.00">assetable_type :character varying(30)</text>
<text text-anchor="start" x="1104.11" y="-516.3" font-family="Times,serif" font-size="14.00">type :character varying(30)</text>
<text text-anchor="start" x="1104.11" y="-502.3" font-family="Times,serif" font-size="14.00">width :integer</text>
<text text-anchor="start" x="1104.11" y="-488.3" font-family="Times,serif" font-size="14.00">height :integer</text>
<text text-anchor="start" x="1104.11" y="-474.3" font-family="Times,serif" font-size="14.00">created_at :timestamp without time zone</text>
<text text-anchor="start" x="1104.11" y="-460.3" font-family="Times,serif" font-size="14.00">updated_at :timestamp without time zone</text>
</g>
<!-- Ckeditor::Picture -->
<g id="node6" class="node"><title>Ckeditor::Picture</title>
<path fill="none" stroke="black" d="M1374.11,-453.5C1374.11,-453.5 1597.84,-453.5 1597.84,-453.5 1603.84,-453.5 1609.84,-459.5 1609.84,-465.5 1609.84,-465.5 1609.84,-625.5 1609.84,-625.5 1609.84,-631.5 1603.84,-637.5 1597.84,-637.5 1597.84,-637.5 1374.11,-637.5 1374.11,-637.5 1368.11,-637.5 1362.11,-631.5 1362.11,-625.5 1362.11,-625.5 1362.11,-465.5 1362.11,-465.5 1362.11,-459.5 1368.11,-453.5 1374.11,-453.5"/>
<text text-anchor="middle" x="1485.97" y="-622.3" font-family="Times,serif" font-size="14.00">Ckeditor::Picture</text>
<polyline fill="none" stroke="black" points="1362.11,-615.5 1609.84,-615.5 "/>
<text text-anchor="start" x="1370.11" y="-600.3" font-family="Times,serif" font-size="14.00">id :integer</text>
<text text-anchor="start" x="1370.11" y="-586.3" font-family="Times,serif" font-size="14.00">data_file_name :character varying</text>
<text text-anchor="start" x="1370.11" y="-572.3" font-family="Times,serif" font-size="14.00">data_content_type :character varying</text>
<text text-anchor="start" x="1370.11" y="-558.3" font-family="Times,serif" font-size="14.00">data_file_size :integer</text>
<text text-anchor="start" x="1370.11" y="-544.3" font-family="Times,serif" font-size="14.00">assetable_id :integer</text>
<text text-anchor="start" x="1370.11" y="-530.3" font-family="Times,serif" font-size="14.00">assetable_type :character varying(30)</text>
<text text-anchor="start" x="1370.11" y="-516.3" font-family="Times,serif" font-size="14.00">type :character varying(30)</text>
<text text-anchor="start" x="1370.11" y="-502.3" font-family="Times,serif" font-size="14.00">width :integer</text>
<text text-anchor="start" x="1370.11" y="-488.3" font-family="Times,serif" font-size="14.00">height :integer</text>
<text text-anchor="start" x="1370.11" y="-474.3" font-family="Times,serif" font-size="14.00">created_at :timestamp without time zone</text>
<text text-anchor="start" x="1370.11" y="-460.3" font-family="Times,serif" font-size="14.00">updated_at :timestamp without time zone</text>
</g>
<!-- Comment -->
<g id="node7" class="node"><title>Comment</title>
<path fill="none" stroke="black" d="M310.111,-137.5C310.111,-137.5 533.836,-137.5 533.836,-137.5 539.836,-137.5 545.836,-143.5 545.836,-149.5 545.836,-149.5 545.836,-239.5 545.836,-239.5 545.836,-245.5 539.836,-251.5 533.836,-251.5 533.836,-251.5 310.111,-251.5 310.111,-251.5 304.111,-251.5 298.111,-245.5 298.111,-239.5 298.111,-239.5 298.111,-149.5 298.111,-149.5 298.111,-143.5 304.111,-137.5 310.111,-137.5"/>
<text text-anchor="middle" x="421.974" y="-236.3" font-family="Times,serif" font-size="14.00">Comment</text>
<polyline fill="none" stroke="black" points="298.111,-229.5 545.836,-229.5 "/>
<text text-anchor="start" x="306.111" y="-214.3" font-family="Times,serif" font-size="14.00">id :integer</text>
<text text-anchor="start" x="306.111" y="-200.3" font-family="Times,serif" font-size="14.00">body :text</text>
<text text-anchor="start" x="306.111" y="-186.3" font-family="Times,serif" font-size="14.00">created_at :timestamp without time zone</text>
<text text-anchor="start" x="306.111" y="-172.3" font-family="Times,serif" font-size="14.00">updated_at :timestamp without time zone</text>
<text text-anchor="start" x="306.111" y="-158.3" font-family="Times,serif" font-size="14.00">post_id :integer</text>
<text text-anchor="start" x="306.111" y="-144.3" font-family="Times,serif" font-size="14.00">user_id :integer</text>
</g>
<!-- Contact -->
<g id="node8" class="node"><title>Contact</title>
<path fill="none" stroke="black" d="M1640.11,-481.5C1640.11,-481.5 1863.84,-481.5 1863.84,-481.5 1869.84,-481.5 1875.84,-487.5 1875.84,-493.5 1875.84,-493.5 1875.84,-597.5 1875.84,-597.5 1875.84,-603.5 1869.84,-609.5 1863.84,-609.5 1863.84,-609.5 1640.11,-609.5 1640.11,-609.5 1634.11,-609.5 1628.11,-603.5 1628.11,-597.5 1628.11,-597.5 1628.11,-493.5 1628.11,-493.5 1628.11,-487.5 1634.11,-481.5 1640.11,-481.5"/>
<text text-anchor="middle" x="1751.97" y="-594.3" font-family="Times,serif" font-size="14.00">Contact</text>
<polyline fill="none" stroke="black" points="1628.11,-587.5 1875.84,-587.5 "/>
<text text-anchor="start" x="1636.11" y="-572.3" font-family="Times,serif" font-size="14.00">id :integer</text>
<text text-anchor="start" x="1636.11" y="-558.3" font-family="Times,serif" font-size="14.00">email :character varying</text>
<text text-anchor="start" x="1636.11" y="-544.3" font-family="Times,serif" font-size="14.00">name :character varying</text>
<text text-anchor="start" x="1636.11" y="-530.3" font-family="Times,serif" font-size="14.00">subject :character varying</text>
<text text-anchor="start" x="1636.11" y="-516.3" font-family="Times,serif" font-size="14.00">message :text</text>
<text text-anchor="start" x="1636.11" y="-502.3" font-family="Times,serif" font-size="14.00">created_at :timestamp without time zone</text>
<text text-anchor="start" x="1636.11" y="-488.3" font-family="Times,serif" font-size="14.00">updated_at :timestamp without time zone</text>
</g>
<!-- Favourite -->
<g id="node9" class="node"><title>Favourite</title>
<path fill="none" stroke="black" d="M1906.11,-495.5C1906.11,-495.5 2129.84,-495.5 2129.84,-495.5 2135.84,-495.5 2141.84,-501.5 2141.84,-507.5 2141.84,-507.5 2141.84,-583.5 2141.84,-583.5 2141.84,-589.5 2135.84,-595.5 2129.84,-595.5 2129.84,-595.5 1906.11,-595.5 1906.11,-595.5 1900.11,-595.5 1894.11,-589.5 1894.11,-583.5 1894.11,-583.5 1894.11,-507.5 1894.11,-507.5 1894.11,-501.5 1900.11,-495.5 1906.11,-495.5"/>
<text text-anchor="middle" x="2017.97" y="-580.3" font-family="Times,serif" font-size="14.00">Favourite</text>
<polyline fill="none" stroke="black" points="1894.11,-573.5 2141.84,-573.5 "/>
<text text-anchor="start" x="1902.11" y="-558.3" font-family="Times,serif" font-size="14.00">id :integer</text>
<text text-anchor="start" x="1902.11" y="-544.3" font-family="Times,serif" font-size="14.00">user_id :integer</text>
<text text-anchor="start" x="1902.11" y="-530.3" font-family="Times,serif" font-size="14.00">post_id :integer</text>
<text text-anchor="start" x="1902.11" y="-516.3" font-family="Times,serif" font-size="14.00">created_at :timestamp without time zone</text>
<text text-anchor="start" x="1902.11" y="-502.3" font-family="Times,serif" font-size="14.00">updated_at :timestamp without time zone</text>
</g>
<!-- Like -->
<g id="node10" class="node"><title>Like</title>
<path fill="none" stroke="black" d="M2172.11,-495.5C2172.11,-495.5 2395.84,-495.5 2395.84,-495.5 2401.84,-495.5 2407.84,-501.5 2407.84,-507.5 2407.84,-507.5 2407.84,-583.5 2407.84,-583.5 2407.84,-589.5 2401.84,-595.5 2395.84,-595.5 2395.84,-595.5 2172.11,-595.5 2172.11,-595.5 2166.11,-595.5 2160.11,-589.5 2160.11,-583.5 2160.11,-583.5 2160.11,-507.5 2160.11,-507.5 2160.11,-501.5 2166.11,-495.5 2172.11,-495.5"/>
<text text-anchor="middle" x="2283.97" y="-580.3" font-family="Times,serif" font-size="14.00">Like</text>
<polyline fill="none" stroke="black" points="2160.11,-573.5 2407.84,-573.5 "/>
<text text-anchor="start" x="2168.11" y="-558.3" font-family="Times,serif" font-size="14.00">id :integer</text>
<text text-anchor="start" x="2168.11" y="-544.3" font-family="Times,serif" font-size="14.00">user_id :integer</text>
<text text-anchor="start" x="2168.11" y="-530.3" font-family="Times,serif" font-size="14.00">post_id :integer</text>
<text text-anchor="start" x="2168.11" y="-516.3" font-family="Times,serif" font-size="14.00">created_at :timestamp without time zone</text>
<text text-anchor="start" x="2168.11" y="-502.3" font-family="Times,serif" font-size="14.00">updated_at :timestamp without time zone</text>
</g>
<!-- Post&#45;&gt;Comment -->
<g id="edge2" class="edge"><title>Post&#45;&gt;Comment</title>
<path fill="none" stroke="#999ef9" d="M573.216,-284.199C557.766,-275.137 541.98,-265.88 526.715,-256.927"/>
<ellipse fill="none" stroke="#999ef9" cx="577.098" cy="-286.475" rx="4.00002" ry="4.00002"/>
<polygon fill="#999ef9" stroke="#999ef9" points="526.42,-256.754 520.071,-247.814 522.107,-254.225 517.794,-251.696 517.794,-251.696 517.794,-251.696 522.107,-254.225 515.518,-255.577 526.42,-256.754 526.42,-256.754"/>
</g>
<!-- Tag -->
<g id="node12" class="node"><title>Tag</title>
<path fill="none" stroke="black" d="M576.111,-151.5C576.111,-151.5 799.836,-151.5 799.836,-151.5 805.836,-151.5 811.836,-157.5 811.836,-163.5 811.836,-163.5 811.836,-225.5 811.836,-225.5 811.836,-231.5 805.836,-237.5 799.836,-237.5 799.836,-237.5 576.111,-237.5 576.111,-237.5 570.111,-237.5 564.111,-231.5 564.111,-225.5 564.111,-225.5 564.111,-163.5 564.111,-163.5 564.111,-157.5 570.111,-151.5 576.111,-151.5"/>
<text text-anchor="middle" x="687.974" y="-222.3" font-family="Times,serif" font-size="14.00">Tag</text>
<polyline fill="none" stroke="black" points="564.111,-215.5 811.836,-215.5 "/>
<text text-anchor="start" x="572.111" y="-200.3" font-family="Times,serif" font-size="14.00">id :integer</text>
<text text-anchor="start" x="572.111" y="-186.3" font-family="Times,serif" font-size="14.00">name :character varying</text>
<text text-anchor="start" x="572.111" y="-172.3" font-family="Times,serif" font-size="14.00">created_at :timestamp without time zone</text>
<text text-anchor="start" x="572.111" y="-158.3" font-family="Times,serif" font-size="14.00">updated_at :timestamp without time zone</text>
</g>
<!-- Post&#45;&gt;Tag -->
<g id="edge4" class="edge"><title>Post&#45;&gt;Tag</title>
<path fill="none" stroke="#67c49d" d="M687.974,-278.401C687.974,-268.046 687.974,-257.574 687.974,-247.721"/>
<polygon fill="#67c49d" stroke="#67c49d" points="687.974,-278.498 683.474,-288.498 687.974,-283.498 687.974,-288.498 687.974,-288.498 687.974,-288.498 687.974,-283.498 692.474,-288.499 687.974,-278.498 687.974,-278.498"/>
<polygon fill="#67c49d" stroke="#67c49d" points="687.974,-247.708 692.474,-237.708 687.974,-242.708 687.974,-237.708 687.974,-237.708 687.974,-237.708 687.974,-242.708 683.474,-237.708 687.974,-247.708 687.974,-247.708"/>
</g>
<!-- Tagging -->
<g id="node13" class="node"><title>Tagging</title>
<path fill="none" stroke="black" d="M652.111,-0.5C652.111,-0.5 875.836,-0.5 875.836,-0.5 881.836,-0.5 887.836,-6.5 887.836,-12.5 887.836,-12.5 887.836,-88.5 887.836,-88.5 887.836,-94.5 881.836,-100.5 875.836,-100.5 875.836,-100.5 652.111,-100.5 652.111,-100.5 646.111,-100.5 640.111,-94.5 640.111,-88.5 640.111,-88.5 640.111,-12.5 640.111,-12.5 640.111,-6.5 646.111,-0.5 652.111,-0.5"/>
<text text-anchor="middle" x="763.974" y="-85.3" font-family="Times,serif" font-size="14.00">Tagging</text>
<polyline fill="none" stroke="black" points="640.111,-78.5 887.836,-78.5 "/>
<text text-anchor="start" x="648.111" y="-63.3" font-family="Times,serif" font-size="14.00">id :integer</text>
<text text-anchor="start" x="648.111" y="-49.3" font-family="Times,serif" font-size="14.00">post_id :integer</text>
<text text-anchor="start" x="648.111" y="-35.3" font-family="Times,serif" font-size="14.00">tag_id :integer</text>
<text text-anchor="start" x="648.111" y="-21.3" font-family="Times,serif" font-size="14.00">created_at :timestamp without time zone</text>
<text text-anchor="start" x="648.111" y="-7.3" font-family="Times,serif" font-size="14.00">updated_at :timestamp without time zone</text>
</g>
<!-- Post&#45;&gt;Tagging -->
<g id="edge3" class="edge"><title>Post&#45;&gt;Tagging</title>
<path fill="none" stroke="#0d99d6" d="M799.407,-282.548C807.959,-273.289 815.413,-263.105 820.974,-252 843.859,-206.299 835.785,-185.918 820.974,-137 818.104,-127.524 813.8,-118.138 808.818,-109.248"/>
<ellipse fill="none" stroke="#0d99d6" cx="796.421" cy="-285.628" rx="4.00002" ry="4.00002"/>
<polygon fill="#0d99d6" stroke="#0d99d6" points="808.75,-109.134 807.506,-98.2388 806.194,-104.837 803.638,-100.539 803.638,-100.539 803.638,-100.539 806.194,-104.837 799.771,-102.84 808.75,-109.134 808.75,-109.134"/>
</g>
<!-- Tag&#45;&gt;Tagging -->
<g id="edge5" class="edge"><title>Tag&#45;&gt;Tagging</title>
<path fill="none" stroke="#749d75" d="M714.445,-144.04C720.395,-132.924 726.761,-121.029 732.88,-109.597"/>
<ellipse fill="none" stroke="#749d75" cx="712.458" cy="-147.753" rx="4.00002" ry="4.00002"/>
<polygon fill="#749d75" stroke="#749d75" points="733.002,-109.368 741.689,-102.674 735.362,-104.959 737.721,-100.551 737.721,-100.551 737.721,-100.551 735.362,-104.959 733.754,-98.4274 733.002,-109.368 733.002,-109.368"/>
</g>
<!-- User -->
<g id="node14" class="node"><title>User</title>
<path fill="none" stroke="black" d="M310.111,-481.5C310.111,-481.5 533.836,-481.5 533.836,-481.5 539.836,-481.5 545.836,-487.5 545.836,-493.5 545.836,-493.5 545.836,-597.5 545.836,-597.5 545.836,-603.5 539.836,-609.5 533.836,-609.5 533.836,-609.5 310.111,-609.5 310.111,-609.5 304.111,-609.5 298.111,-603.5 298.111,-597.5 298.111,-597.5 298.111,-493.5 298.111,-493.5 298.111,-487.5 304.111,-481.5 310.111,-481.5"/>
<text text-anchor="middle" x="421.974" y="-594.3" font-family="Times,serif" font-size="14.00">User</text>
<polyline fill="none" stroke="black" points="298.111,-587.5 545.836,-587.5 "/>
<text text-anchor="start" x="306.111" y="-572.3" font-family="Times,serif" font-size="14.00">id :integer</text>
<text text-anchor="start" x="306.111" y="-558.3" font-family="Times,serif" font-size="14.00">first_name :character varying</text>
<text text-anchor="start" x="306.111" y="-544.3" font-family="Times,serif" font-size="14.00">last_name :character varying</text>
<text text-anchor="start" x="306.111" y="-530.3" font-family="Times,serif" font-size="14.00">email :character varying</text>
<text text-anchor="start" x="306.111" y="-516.3" font-family="Times,serif" font-size="14.00">password_digest :character varying</text>
<text text-anchor="start" x="306.111" y="-502.3" font-family="Times,serif" font-size="14.00">created_at :timestamp without time zone</text>
<text text-anchor="start" x="306.111" y="-488.3" font-family="Times,serif" font-size="14.00">updated_at :timestamp without time zone</text>
</g>
<!-- User&#45;&gt;Comment -->
<g id="edge7" class="edge"><title>User&#45;&gt;Comment</title>
<path fill="none" stroke="#e59929" d="M421.974,-473.062C421.974,-411.118 421.974,-322.17 421.974,-261.786"/>
<ellipse fill="none" stroke="#e59929" cx="421.974" cy="-477.299" rx="4" ry="4"/>
<polygon fill="#e59929" stroke="#e59929" points="421.974,-261.604 426.474,-251.604 421.974,-256.604 421.974,-251.604 421.974,-251.604 421.974,-251.604 421.974,-256.604 417.474,-251.604 421.974,-261.604 421.974,-261.604"/>
</g>
<!-- User&#45;&gt;Post -->
<g id="edge6" class="edge"><title>User&#45;&gt;Post</title>
<path fill="none" stroke="#a69f06" d="M516.33,-476.748C540.869,-459.128 567.331,-440.127 591.955,-422.445"/>
<ellipse fill="none" stroke="#a69f06" cx="513.058" cy="-479.097" rx="4.00002" ry="4.00002"/>
<polygon fill="#a69f06" stroke="#a69f06" points="592.107,-422.336 602.855,-420.159 596.169,-419.42 600.23,-416.504 600.23,-416.504 600.23,-416.504 596.169,-419.42 597.606,-412.848 592.107,-422.336 592.107,-422.336"/>
</g>
</g>
</svg>
