<?xml version="1.0" encoding="UTF-8" standalone="no"?>
<!DOCTYPE svg PUBLIC "-//W3C//DTD SVG 1.1//EN"
 "http://www.w3.org/Graphics/SVG/1.1/DTD/svg11.dtd">
<!-- Generated by graphviz version 2.38.0 (20140413.2041)
 -->
<!-- Title: models_diagram Pages: 1 -->
<svg width="1265pt" height="297pt"
 viewBox="0.00 0.00 1264.97 297.00" xmlns="http://www.w3.org/2000/svg" xmlns:xlink="http://www.w3.org/1999/xlink">
<g id="graph0" class="graph" transform="scale(1 1) rotate(0) translate(4 293)">
<title>models_diagram</title>
<polygon fill="none" stroke="none" points="-4,4 -4,-293 1260.97,-293 1260.97,4 -4,4"/>
<!-- _diagram_info -->
<g id="node1" class="node"><title>_diagram_info</title>
<text text-anchor="start" x="8" y="-274.6" font-family="Times,serif" font-size="13.00">Models diagram</text>
<text text-anchor="start" x="8" y="-261.6" font-family="Times,serif" font-size="13.00">Date: Nov 22 2015 &#45; 16:06</text>
<text text-anchor="start" x="8" y="-248.6" font-family="Times,serif" font-size="13.00">Migration version: 20151117011217</text>
<text text-anchor="start" x="8" y="-235.6" font-family="Times,serif" font-size="13.00">Generated by RailRoady 1.4.1</text>
<text text-anchor="start" x="8" y="-222.6" font-family="Times,serif" font-size="13.00">http://railroady.prestonlee.com</text>
</g>
<!-- Ability -->
<g id="node2" class="node"><title>Ability</title>
<polygon fill="none" stroke="black" points="279.644,-270.5 224.304,-270.5 224.304,-234.5 279.644,-234.5 279.644,-270.5"/>
<text text-anchor="middle" x="251.974" y="-248.3" font-family="Times,serif" font-size="14.00">Ability</text>
</g>
<!-- Category -->
<g id="node3" class="node"><title>Category</title>
<ellipse fill="none" stroke="black" cx="412.974" cy="-252.5" rx="42.5456" ry="18"/>
<text text-anchor="middle" x="412.974" y="-248.3" font-family="Times,serif" font-size="14.00">Category</text>
</g>
<!-- Post -->
<g id="node11" class="node"><title>Post</title>
<ellipse fill="none" stroke="black" cx="412.974" cy="-162" rx="27" ry="18"/>
<text text-anchor="middle" x="412.974" y="-157.8" font-family="Times,serif" font-size="14.00">Post</text>
</g>
<!-- Category&#45;&gt;Post -->
<g id="edge1" class="edge"><title>Category&#45;&gt;Post</title>
<path fill="none" stroke="#9c3d41" d="M412.974,-226.189C412.974,-214.971 412.974,-201.752 412.974,-190.311"/>
<ellipse fill="none" stroke="#9c3d41" cx="412.974" cy="-230.436" rx="4" ry="4"/>
<polygon fill="#9c3d41" stroke="#9c3d41" points="412.974,-190.011 417.474,-180.011 412.974,-185.011 412.974,-180.011 412.974,-180.011 412.974,-180.011 412.974,-185.011 408.474,-180.011 412.974,-190.011 412.974,-190.011"/>
</g>
<!-- Ckeditor::Asset -->
<g id="node4" class="node"><title>Ckeditor::Asset</title>
<ellipse fill="none" stroke="black" cx="538.974" cy="-252.5" rx="65.7408" ry="18"/>
<text text-anchor="middle" x="538.974" y="-248.3" font-family="Times,serif" font-size="14.00">Ckeditor::Asset</text>
</g>
<!-- Ckeditor::AttachmentFile -->
<g id="node5" class="node"><title>Ckeditor::AttachmentFile</title>
<ellipse fill="none" stroke="black" cx="723.974" cy="-252.5" rx="100.962" ry="18"/>
<text text-anchor="middle" x="723.974" y="-248.3" font-family="Times,serif" font-size="14.00">Ckeditor::AttachmentFile</text>
</g>
<!-- Ckeditor::Picture -->
<g id="node6" class="node"><title>Ckeditor::Picture</title>
<ellipse fill="none" stroke="black" cx="913.974" cy="-252.5" rx="71.0358" ry="18"/>
<text text-anchor="middle" x="913.974" y="-248.3" font-family="Times,serif" font-size="14.00">Ckeditor::Picture</text>
</g>
<!-- Comment -->
<g id="node7" class="node"><title>Comment</title>
<ellipse fill="none" stroke="black" cx="323.974" cy="-90" rx="44.9768" ry="18"/>
<text text-anchor="middle" x="323.974" y="-85.8" font-family="Times,serif" font-size="14.00">Comment</text>
</g>
<!-- Contact -->
<g id="node8" class="node"><title>Contact</title>
<ellipse fill="none" stroke="black" cx="1040.97" cy="-252.5" rx="37.7266" ry="18"/>
<text text-anchor="middle" x="1040.97" y="-248.3" font-family="Times,serif" font-size="14.00">Contact</text>
</g>
<!-- Favourite -->
<g id="node9" class="node"><title>Favourite</title>
<ellipse fill="none" stroke="black" cx="1140.97" cy="-252.5" rx="43.9992" ry="18"/>
<text text-anchor="middle" x="1140.97" y="-248.3" font-family="Times,serif" font-size="14.00">Favourite</text>
</g>
<!-- Like -->
<g id="node10" class="node"><title>Like</title>
<ellipse fill="none" stroke="black" cx="1229.97" cy="-252.5" rx="27" ry="18"/>
<text text-anchor="middle" x="1229.97" y="-248.3" font-family="Times,serif" font-size="14.00">Like</text>
</g>
<!-- Post&#45;&gt;Comment -->
<g id="edge2" class="edge"><title>Post&#45;&gt;Comment</title>
<path fill="none" stroke="#f5bc01" d="M389.915,-142.864C378.194,-133.646 363.867,-122.376 351.564,-112.7"/>
<ellipse fill="none" stroke="#f5bc01" cx="393.089" cy="-145.361" rx="4.00002" ry="4.00002"/>
<polygon fill="#f5bc01" stroke="#f5bc01" points="351.288,-112.483 346.21,-102.764 347.358,-109.392 343.428,-106.301 343.428,-106.301 343.428,-106.301 347.358,-109.392 340.646,-109.838 351.288,-112.483 351.288,-112.483"/>
</g>
<!-- Tag -->
<g id="node12" class="node"><title>Tag</title>
<ellipse fill="none" stroke="black" cx="413.974" cy="-90" rx="27" ry="18"/>
<text text-anchor="middle" x="413.974" y="-85.8" font-family="Times,serif" font-size="14.00">Tag</text>
</g>
<!-- Post&#45;&gt;Tag -->
<g id="edge4" class="edge"><title>Post&#45;&gt;Tag</title>
<path fill="none" stroke="#4f1b13" d="M413.364,-133.665C413.437,-128.552 413.513,-123.21 413.586,-118.104"/>
<polygon fill="#4f1b13" stroke="#4f1b13" points="413.364,-133.698 408.721,-143.632 413.292,-138.697 413.221,-143.697 413.221,-143.697 413.221,-143.697 413.292,-138.697 417.72,-143.761 413.364,-133.698 413.364,-133.698"/>
<polygon fill="#4f1b13" stroke="#4f1b13" points="413.586,-118.103 418.229,-108.169 413.658,-113.104 413.729,-108.104 413.729,-108.104 413.729,-108.104 413.658,-113.104 409.23,-108.04 413.586,-118.103 413.586,-118.103"/>
</g>
<!-- Tagging -->
<g id="node13" class="node"><title>Tagging</title>
<ellipse fill="none" stroke="black" cx="440.974" cy="-18" rx="38.9207" ry="18"/>
<text text-anchor="middle" x="440.974" y="-13.8" font-family="Times,serif" font-size="14.00">Tagging</text>
</g>
<!-- Post&#45;&gt;Tagging -->
<g id="edge3" class="edge"><title>Post&#45;&gt;Tagging</title>
<path fill="none" stroke="#89a5d8" d="M432.162,-139.888C439.207,-130.765 446.343,-119.543 449.974,-108 456.323,-87.8138 453.363,-63.9026 449.206,-45.9505"/>
<ellipse fill="none" stroke="#89a5d8" cx="429.618" cy="-143.027" rx="4.00002" ry="4.00002"/>
<polygon fill="#89a5d8" stroke="#89a5d8" points="449.174,-45.8265 451.039,-35.0204 447.928,-40.9844 446.681,-36.1423 446.681,-36.1423 446.681,-36.1423 447.928,-40.9844 442.323,-37.2642 449.174,-45.8265 449.174,-45.8265"/>
</g>
<!-- Tag&#45;&gt;Tagging -->
<g id="edge5" class="edge"><title>Tag&#45;&gt;Tagging</title>
<path fill="none" stroke="#73db0a" d="M423.316,-64.7779C425.721,-58.544 428.32,-51.8046 430.766,-45.4634"/>
<ellipse fill="none" stroke="#73db0a" cx="421.812" cy="-68.679" rx="4.00001" ry="4.00001"/>
<polygon fill="#73db0a" stroke="#73db0a" points="430.835,-45.2862 438.632,-37.5757 432.634,-40.6212 434.433,-35.9562 434.433,-35.9562 434.433,-35.9562 432.634,-40.6212 430.235,-34.3368 430.835,-45.2862 430.835,-45.2862"/>
</g>
<!-- User -->
<g id="node14" class="node"><title>User</title>
<ellipse fill="none" stroke="black" cx="324.974" cy="-252.5" rx="27" ry="18"/>
<text text-anchor="middle" x="324.974" y="-248.3" font-family="Times,serif" font-size="14.00">User</text>
</g>
<!-- User&#45;&gt;Comment -->
<g id="edge7" class="edge"><title>User&#45;&gt;Comment</title>
<path fill="none" stroke="#44e073" d="M324.815,-226.079C324.632,-196.675 324.332,-148.455 324.144,-118.284"/>
<ellipse fill="none" stroke="#44e073" cx="324.842" cy="-230.324" rx="4" ry="4"/>
<polygon fill="#44e073" stroke="#44e073" points="324.142,-118.053 328.58,-108.025 324.111,-113.053 324.08,-108.053 324.08,-108.053 324.08,-108.053 324.111,-113.053 319.58,-108.081 324.142,-118.053 324.142,-118.053"/>
</g>
<!-- User&#45;&gt;Post -->
<g id="edge6" class="edge"><title>User&#45;&gt;Post</title>
<path fill="none" stroke="#1220fd" d="M345.223,-231.135C359.029,-217.251 377.288,-198.888 391.372,-184.724"/>
<ellipse fill="none" stroke="#1220fd" cx="342.325" cy="-234.05" rx="4.00002" ry="4.00002"/>
<polygon fill="#1220fd" stroke="#1220fd" points="391.662,-184.433 401.904,-180.515 395.187,-180.888 398.713,-177.342 398.713,-177.342 398.713,-177.342 395.187,-180.888 395.522,-174.169 391.662,-184.433 391.662,-184.433"/>
</g>
</g>
</svg>
