<?xml version="1.0" encoding="UTF-8" standalone="no"?>
<!DOCTYPE svg PUBLIC "-//W3C//DTD SVG 1.1//EN"
 "http://www.w3.org/Graphics/SVG/1.1/DTD/svg11.dtd">
<!-- Generated by graphviz version 2.38.0 (20140413.2041)
 -->
<!-- Title: models_diagram Pages: 1 -->
<svg width="1014pt" height="326pt"
 viewBox="0.00 0.00 1014.06 326.00" xmlns="http://www.w3.org/2000/svg" xmlns:xlink="http://www.w3.org/1999/xlink">
<g id="graph0" class="graph" transform="scale(1 1) rotate(0) translate(4 322)">
<title>models_diagram</title>
<polygon fill="none" stroke="none" points="-4,4 -4,-322 1010.06,-322 1010.06,4 -4,4"/>
<!-- _diagram_info -->
<g id="node1" class="node"><title>_diagram_info</title>
<text text-anchor="start" x="8" y="-303.6" font-family="Times,serif" font-size="13.00">Models diagram</text>
<text text-anchor="start" x="8" y="-290.6" font-family="Times,serif" font-size="13.00">Date: Nov 24 2015 &#45; 14:37</text>
<text text-anchor="start" x="8" y="-277.6" font-family="Times,serif" font-size="13.00">Migration version: 20151123051335</text>
<text text-anchor="start" x="8" y="-264.6" font-family="Times,serif" font-size="13.00">Generated by RailRoady 1.4.1</text>
<text text-anchor="start" x="8" y="-251.6" font-family="Times,serif" font-size="13.00">http://railroady.prestonlee.com</text>
</g>
<!-- Ability -->
<g id="node2" class="node"><title>Ability</title>
<polygon fill="none" stroke="black" points="280.12,-299.5 224.78,-299.5 224.78,-263.5 280.12,-263.5 280.12,-299.5"/>
<text text-anchor="middle" x="252.45" y="-277.3" font-family="Times,serif" font-size="14.00">Ability</text>
</g>
<!-- Category -->
<g id="node3" class="node"><title>Category</title>
<ellipse fill="none" stroke="black" cx="340.45" cy="-281.5" rx="42.5456" ry="18"/>
<text text-anchor="middle" x="340.45" y="-277.3" font-family="Times,serif" font-size="14.00">Category</text>
</g>
<!-- Post -->
<g id="node11" class="node"><title>Post</title>
<ellipse fill="none" stroke="black" cx="340.45" cy="-190" rx="27" ry="18"/>
<text text-anchor="middle" x="340.45" y="-185.8" font-family="Times,serif" font-size="14.00">Post</text>
</g>
<!-- Category&#45;&gt;Post -->
<g id="edge1" class="edge"><title>Category&#45;&gt;Post</title>
<path fill="none" stroke="#b82dda" d="M340.45,-254.903C340.45,-243.441 340.45,-229.914 340.45,-218.263"/>
<ellipse fill="none" stroke="#b82dda" cx="340.45" cy="-259.243" rx="4" ry="4"/>
<polygon fill="#b82dda" stroke="#b82dda" points="340.45,-218.204 344.95,-208.203 340.45,-213.204 340.45,-208.204 340.45,-208.204 340.45,-208.204 340.45,-213.204 335.95,-208.204 340.45,-218.204 340.45,-218.204"/>
</g>
<!-- Ckeditor::Asset -->
<g id="node4" class="node"><title>Ckeditor::Asset</title>
<ellipse fill="none" stroke="black" cx="466.45" cy="-281.5" rx="65.7408" ry="18"/>
<text text-anchor="middle" x="466.45" y="-277.3" font-family="Times,serif" font-size="14.00">Ckeditor::Asset</text>
</g>
<!-- Ckeditor::AttachmentFile -->
<g id="node5" class="node"><title>Ckeditor::AttachmentFile</title>
<ellipse fill="none" stroke="black" cx="651.45" cy="-281.5" rx="100.962" ry="18"/>
<text text-anchor="middle" x="651.45" y="-277.3" font-family="Times,serif" font-size="14.00">Ckeditor::AttachmentFile</text>
</g>
<!-- Ckeditor::Picture -->
<g id="node6" class="node"><title>Ckeditor::Picture</title>
<ellipse fill="none" stroke="black" cx="841.45" cy="-281.5" rx="71.0358" ry="18"/>
<text text-anchor="middle" x="841.45" y="-277.3" font-family="Times,serif" font-size="14.00">Ckeditor::Picture</text>
</g>
<!-- Comment -->
<g id="node7" class="node"><title>Comment</title>
<ellipse fill="none" stroke="black" cx="157.45" cy="-18" rx="44.9768" ry="18"/>
<text text-anchor="middle" x="157.45" y="-13.8" font-family="Times,serif" font-size="14.00">Comment</text>
</g>
<!-- Contact -->
<g id="node8" class="node"><title>Contact</title>
<ellipse fill="none" stroke="black" cx="968.45" cy="-281.5" rx="37.7266" ry="18"/>
<text text-anchor="middle" x="968.45" y="-277.3" font-family="Times,serif" font-size="14.00">Contact</text>
</g>
<!-- Favourite -->
<g id="node9" class="node"><title>Favourite</title>
<ellipse fill="none" stroke="black" cx="333.45" cy="-18" rx="43.9992" ry="18"/>
<text text-anchor="middle" x="333.45" y="-13.8" font-family="Times,serif" font-size="14.00">Favourite</text>
</g>
<!-- Like -->
<g id="node10" class="node"><title>Like</title>
<ellipse fill="none" stroke="black" cx="485.45" cy="-18" rx="27" ry="18"/>
<text text-anchor="middle" x="485.45" y="-13.8" font-family="Times,serif" font-size="14.00">Like</text>
</g>
<!-- Post&#45;&gt;Comment -->
<g id="edge2" class="edge"><title>Post&#45;&gt;Comment</title>
<path fill="none" stroke="#14cebe" d="M305.439,-187.411C231.019,-183.674 62.4766,-173.166 45.4497,-154 9.49816,-113.531 77.4705,-64.1746 122.38,-37.784"/>
<ellipse fill="none" stroke="#14cebe" cx="309.615" cy="-187.616" rx="4" ry="4"/>
<polygon fill="#14cebe" stroke="#14cebe" points="122.62,-37.6463 133.533,-36.5694 126.956,-35.1566 131.292,-32.6669 131.292,-32.6669 131.292,-32.6669 126.956,-35.1566 129.052,-28.7644 122.62,-37.6463 122.62,-37.6463"/>
</g>
<!-- Post&#45;&gt;Favourite -->
<g id="edge5" class="edge"><title>Post&#45;&gt;Favourite</title>
<path fill="none" stroke="#ac1888" d="M375.413,-186.026C408.884,-181.389 452.75,-169.63 441.45,-140 425.696,-98.6923 388.642,-62.5393 362.341,-40.7561"/>
<ellipse fill="none" stroke="#ac1888" cx="371.137" cy="-186.561" rx="4.00001" ry="4.00001"/>
<polygon fill="#ac1888" stroke="#ac1888" points="362.001,-40.4817 357.046,-30.6987 358.11,-37.3409 354.22,-34.2002 354.22,-34.2002 354.22,-34.2002 358.11,-37.3409 351.393,-37.7016 362.001,-40.4817 362.001,-40.4817"/>
</g>
<!-- Post&#45;&gt;Like -->
<g id="edge7" class="edge"><title>Post&#45;&gt;Like</title>
<path fill="none" stroke="#2ab8fb" d="M375.782,-187.392C401.444,-184.307 435.106,-175.969 455.45,-154 482.473,-124.818 487.085,-76.8741 486.975,-46.6694"/>
<ellipse fill="none" stroke="#2ab8fb" cx="371.738" cy="-187.809" rx="4" ry="4"/>
<polygon fill="#2ab8fb" stroke="#2ab8fb" points="486.969,-46.4092 491.252,-36.3143 486.861,-41.4104 486.753,-36.4115 486.753,-36.4115 486.753,-36.4115 486.861,-41.4104 482.254,-36.5088 486.969,-46.4092 486.969,-46.4092"/>
</g>
<!-- Tag -->
<g id="node12" class="node"><title>Tag</title>
<ellipse fill="none" stroke="black" cx="551.45" cy="-104" rx="27" ry="18"/>
<text text-anchor="middle" x="551.45" y="-99.8" font-family="Times,serif" font-size="14.00">Tag</text>
</g>
<!-- Post&#45;&gt;Tag -->
<g id="edge4" class="edge"><title>Post&#45;&gt;Tag</title>
<path fill="none" stroke="#aff5ca" d="M377.581,-188.31C413.827,-186.107 469.366,-178.546 510.45,-154 520.552,-147.964 529.323,-138.516 536.131,-129.519"/>
<polygon fill="#aff5ca" stroke="#aff5ca" points="377.432,-188.317 367.219,-184.322 372.438,-188.567 367.444,-188.817 367.444,-188.817 367.444,-188.817 372.438,-188.567 367.669,-193.311 377.432,-188.317 377.432,-188.317"/>
<polygon fill="#aff5ca" stroke="#aff5ca" points="536.266,-129.327 545.711,-123.755 539.151,-125.243 542.035,-121.159 542.035,-121.159 542.035,-121.159 539.151,-125.243 538.36,-118.563 536.266,-129.327 536.266,-129.327"/>
</g>
<!-- Tagging -->
<g id="node13" class="node"><title>Tagging</title>
<ellipse fill="none" stroke="black" cx="576.45" cy="-18" rx="38.9207" ry="18"/>
<text text-anchor="middle" x="576.45" y="-13.8" font-family="Times,serif" font-size="14.00">Tagging</text>
</g>
<!-- Post&#45;&gt;Tagging -->
<g id="edge3" class="edge"><title>Post&#45;&gt;Tagging</title>
<path fill="none" stroke="#992c75" d="M375.169,-185.451C438.034,-178.152 566.197,-158.953 587.45,-122 600.84,-98.7178 594.863,-67.5454 587.559,-45.6129"/>
<ellipse fill="none" stroke="#992c75" cx="371.087" cy="-185.913" rx="4.00001" ry="4.00001"/>
<polygon fill="#992c75" stroke="#992c75" points="587.466,-45.3578 588.291,-34.423 585.763,-40.6568 584.06,-35.9558 584.06,-35.9558 584.06,-35.9558 585.763,-40.6568 579.829,-37.4885 587.466,-45.3578 587.466,-45.3578"/>
</g>
<!-- User -->
<g id="node14" class="node"><title>User</title>
<ellipse fill="none" stroke="black" cx="265.45" cy="-104" rx="27" ry="18"/>
<text text-anchor="middle" x="265.45" y="-99.8" font-family="Times,serif" font-size="14.00">User</text>
</g>
<!-- Post&#45;&gt;User -->
<g id="edge6" class="edge"><title>Post&#45;&gt;User</title>
<path fill="none" stroke="#e03165" d="M303.224,-187.184C229.121,-183.187 68.8429,-172.483 52.4702,-154 48.3444,-149.342 48.4429,-144.743 52.4702,-140 74.5713,-113.97 173.151,-107.264 228.112,-105.56"/>
<polygon fill="#e03165" stroke="#e03165" points="303.518,-187.2 313.268,-192.219 308.511,-187.462 313.504,-187.725 313.504,-187.725 313.504,-187.725 308.511,-187.462 313.741,-183.232 303.518,-187.2 303.518,-187.2"/>
<polygon fill="#e03165" stroke="#e03165" points="228.167,-105.558 238.285,-109.787 233.165,-105.424 238.164,-105.289 238.164,-105.289 238.164,-105.289 233.165,-105.424 238.042,-100.791 228.167,-105.558 228.167,-105.558"/>
<text text-anchor="middle" x="102.439" y="-142.8" font-family="Times,serif" font-size="14.00">favouriting_users</text>
</g>
<!-- Post&#45;&gt;User -->
<g id="edge8" class="edge"><title>Post&#45;&gt;User</title>
<path fill="none" stroke="#4a315a" d="M303.55,-186.583C259.323,-182.828 189.133,-173.844 173.008,-154 154.53,-131.26 196.044,-117.722 229.282,-110.819"/>
<polygon fill="#4a315a" stroke="#4a315a" points="303.677,-186.593 313.287,-191.874 308.661,-186.991 313.645,-187.388 313.645,-187.388 313.645,-187.388 308.661,-186.991 314.003,-182.903 303.677,-186.593 303.677,-186.593"/>
<polygon fill="#4a315a" stroke="#4a315a" points="229.438,-110.789 240.111,-113.304 234.347,-109.837 239.255,-108.886 239.255,-108.886 239.255,-108.886 234.347,-109.837 238.399,-104.469 229.438,-110.789 229.438,-110.789"/>
<text text-anchor="middle" x="206.67" y="-142.8" font-family="Times,serif" font-size="14.00">liking_users</text>
</g>
<!-- Tag&#45;&gt;Tagging -->
<g id="edge9" class="edge"><title>Tag&#45;&gt;Tagging</title>
<path fill="none" stroke="#38e46f" d="M558.893,-77.9914C561.919,-67.8235 565.421,-56.0576 568.497,-45.7212"/>
<ellipse fill="none" stroke="#38e46f" cx="557.65" cy="-82.1675" rx="4.00001" ry="4.00001"/>
<polygon fill="#38e46f" stroke="#38e46f" points="568.546,-45.5579 575.711,-37.257 569.972,-40.7656 571.398,-35.9734 571.398,-35.9734 571.398,-35.9734 569.972,-40.7656 567.085,-34.6897 568.546,-45.5579 568.546,-45.5579"/>
</g>
<!-- User&#45;&gt;Comment -->
<g id="edge11" class="edge"><title>User&#45;&gt;Comment</title>
<path fill="none" stroke="#9fb82f" d="M262.822,-77.5723C260.838,-69.2156 257.397,-60.4306 251.45,-54 240.092,-41.7183 224.022,-33.7256 208.376,-28.5324"/>
<ellipse fill="none" stroke="#9fb82f" cx="263.614" cy="-81.753" rx="4.00001" ry="4.00001"/>
<polygon fill="#9fb82f" stroke="#9fb82f" points="208.315,-28.5142 200.025,-21.3362 203.525,-27.0808 198.734,-25.6474 198.734,-25.6474 198.734,-25.6474 203.525,-27.0808 197.444,-29.9585 208.315,-28.5142 208.315,-28.5142"/>
</g>
<!-- User&#45;&gt;Comment -->
<g id="edge12" class="edge"><title>User&#45;&gt;Comment</title>
<path fill="none" stroke="#d386fa" d="M228.265,-102.077C202.907,-99.2657 170.976,-90.9701 154.119,-68 149.489,-61.6909 148.607,-53.6073 149.38,-45.8327"/>
<polygon fill="#d386fa" stroke="#d386fa" points="228.353,-102.085 237.925,-107.435 233.334,-102.518 238.315,-102.951 238.315,-102.951 238.315,-102.951 233.334,-102.518 238.705,-98.4684 228.353,-102.085 228.353,-102.085"/>
<polygon fill="#d386fa" stroke="#d386fa" points="149.385,-45.8038 155.603,-36.7706 150.28,-40.8845 151.175,-35.9653 151.175,-35.9653 151.175,-35.9653 150.28,-40.8845 146.748,-35.1599 149.385,-45.8038 149.385,-45.8038"/>
<text text-anchor="middle" x="200.115" y="-56.8" font-family="Times,serif" font-size="14.00">posts_comments</text>
</g>
<!-- User&#45;&gt;Favourite -->
<g id="edge13" class="edge"><title>User&#45;&gt;Favourite</title>
<path fill="none" stroke="#fcfca0" d="M282.98,-81.3446C292.393,-69.7173 304.026,-55.3474 313.75,-43.3349"/>
<ellipse fill="none" stroke="#fcfca0" cx="280.439" cy="-84.4841" rx="4.00002" ry="4.00002"/>
<polygon fill="#fcfca0" stroke="#fcfca0" points="313.835,-43.2304 323.624,-38.2893 316.981,-39.3442 320.127,-35.4579 320.127,-35.4579 320.127,-35.4579 316.981,-39.3442 316.629,-32.6265 313.835,-43.2304 313.835,-43.2304"/>
</g>
<!-- User&#45;&gt;Like -->
<g id="edge15" class="edge"><title>User&#45;&gt;Like</title>
<path fill="none" stroke="#7d0177" d="M296.213,-91.2539C337.615,-75.446 410.926,-47.4543 453.117,-31.3452"/>
<ellipse fill="none" stroke="#7d0177" cx="292.315" cy="-92.7425" rx="4.00001" ry="4.00001"/>
<polygon fill="#7d0177" stroke="#7d0177" points="453.289,-31.2795 464.237,-31.9164 457.96,-29.4959 462.632,-27.7124 462.632,-27.7124 462.632,-27.7124 457.96,-29.4959 461.026,-23.5084 453.289,-31.2795 453.289,-31.2795"/>
</g>
<!-- User&#45;&gt;Post -->
<g id="edge10" class="edge"><title>User&#45;&gt;Post</title>
<path fill="none" stroke="#945df6" d="M262.78,-130.433C263.111,-138.553 264.819,-147.19 269.45,-154 277.906,-166.437 292.107,-174.637 305.597,-179.949"/>
<ellipse fill="none" stroke="#945df6" cx="262.825" cy="-126.257" rx="4" ry="4"/>
<polygon fill="#945df6" stroke="#945df6" points="305.767,-180.009 313.708,-187.572 310.484,-181.668 315.201,-183.327 315.201,-183.327 315.201,-183.327 310.484,-181.668 316.694,-179.082 305.767,-180.009 305.767,-180.009"/>
</g>
<!-- User&#45;&gt;Post -->
<g id="edge14" class="edge"><title>User&#45;&gt;Post</title>
<path fill="none" stroke="#d41ede" d="M275.225,-130.971C278.965,-138.887 283.761,-147.268 289.581,-154 295.628,-160.994 303.374,-167.249 310.989,-172.468"/>
<polygon fill="#d41ede" stroke="#d41ede" points="275.175,-130.858 275.315,-119.893 273.182,-126.272 271.188,-121.687 271.188,-121.687 271.188,-121.687 273.182,-126.272 267.061,-123.482 275.175,-130.858 275.175,-130.858"/>
<polygon fill="#d41ede" stroke="#d41ede" points="311.344,-172.696 317.325,-181.887 315.55,-175.398 319.757,-178.101 319.757,-178.101 319.757,-178.101 315.55,-175.398 322.189,-174.315 311.344,-172.696 311.344,-172.696"/>
<text text-anchor="middle" x="329.884" y="-142.8" font-family="Times,serif" font-size="14.00">favourite_post</text>
</g>
<!-- User&#45;&gt;Post -->
<g id="edge16" class="edge"><title>User&#45;&gt;Post</title>
<path fill="none" stroke="#966b53" d="M302.567,-106.831C326.169,-110.152 355.084,-118.681 370.45,-140 376.945,-149.012 372.111,-159.457 364.575,-168.383"/>
<polygon fill="#966b53" stroke="#966b53" points="302.434,-106.816 293.013,-101.204 297.466,-106.245 292.499,-105.674 292.499,-105.674 292.499,-105.674 297.466,-106.245 291.986,-110.145 302.434,-106.816 302.434,-106.816"/>
<polygon fill="#966b53" stroke="#966b53" points="364.409,-168.556 354.232,-172.64 360.942,-172.158 357.474,-175.761 357.474,-175.761 357.474,-175.761 360.942,-172.158 360.717,-178.881 364.409,-168.556 364.409,-168.556"/>
<text text-anchor="middle" x="405.339" y="-142.8" font-family="Times,serif" font-size="14.00">liked_posts</text>
</g>
</g>
</svg>
