<?xml version="1.0" encoding="UTF-8" standalone="no"?>
<!DOCTYPE svg PUBLIC "-//W3C//DTD SVG 1.1//EN"
 "http://www.w3.org/Graphics/SVG/1.1/DTD/svg11.dtd">
<!-- Generated by graphviz version 2.38.0 (20140413.2041)
 -->
<!-- Title: models_diagram Pages: 1 -->
<svg width="1645pt" height="703pt"
 viewBox="0.00 0.00 1644.72 703.00" xmlns="http://www.w3.org/2000/svg" xmlns:xlink="http://www.w3.org/1999/xlink">
<g id="graph0" class="graph" transform="scale(1 1) rotate(0) translate(4 699)">
<title>models_diagram</title>
<polygon fill="none" stroke="none" points="-4,4 -4,-699 1640.72,-699 1640.72,4 -4,4"/>
<!-- _diagram_info -->
<g id="node1" class="node"><title>_diagram_info</title>
<text text-anchor="start" x="34.4126" y="-624.6" font-family="Times,serif" font-size="13.00">Models diagram</text>
<text text-anchor="start" x="34.4126" y="-611.6" font-family="Times,serif" font-size="13.00">Date: Nov 30 2015 &#45; 12:49</text>
<text text-anchor="start" x="34.4126" y="-598.6" font-family="Times,serif" font-size="13.00">Migration version: 20151123051335</text>
<text text-anchor="start" x="34.4126" y="-585.6" font-family="Times,serif" font-size="13.00">Generated by RailRoady 1.4.1</text>
<text text-anchor="start" x="34.4126" y="-572.6" font-family="Times,serif" font-size="13.00">http://railroady.prestonlee.com</text>
</g>
<!-- Ability -->
<g id="node2" class="node"><title>Ability</title>
<polygon fill="none" stroke="black" points="251.028,-580.5 251.028,-624.5 306.697,-624.5 306.697,-580.5 251.028,-580.5"/>
<text text-anchor="middle" x="278.862" y="-609.3" font-family="Times,serif" font-size="14.00">Ability</text>
<polyline fill="none" stroke="black" points="251.028,-602.5 306.697,-602.5 "/>
<text text-anchor="middle" x="278.862" y="-587.3" font-family="Times,serif" font-size="14.00"> </text>
</g>
<!-- Category -->
<g id="node3" class="node"><title>Category</title>
<path fill="none" stroke="black" d="M337,-559.5C337,-559.5 560.725,-559.5 560.725,-559.5 566.725,-559.5 572.725,-565.5 572.725,-571.5 572.725,-571.5 572.725,-633.5 572.725,-633.5 572.725,-639.5 566.725,-645.5 560.725,-645.5 560.725,-645.5 337,-645.5 337,-645.5 331,-645.5 325,-639.5 325,-633.5 325,-633.5 325,-571.5 325,-571.5 325,-565.5 331,-559.5 337,-559.5"/>
<text text-anchor="middle" x="448.862" y="-630.3" font-family="Times,serif" font-size="14.00">Category</text>
<polyline fill="none" stroke="black" points="325,-623.5 572.725,-623.5 "/>
<text text-anchor="start" x="333" y="-608.3" font-family="Times,serif" font-size="14.00">id :integer</text>
<text text-anchor="start" x="333" y="-594.3" font-family="Times,serif" font-size="14.00">title :character varying</text>
<text text-anchor="start" x="333" y="-580.3" font-family="Times,serif" font-size="14.00">created_at :timestamp without time zone</text>
<text text-anchor="start" x="333" y="-566.3" font-family="Times,serif" font-size="14.00">updated_at :timestamp without time zone</text>
</g>
<!-- Post -->
<g id="node11" class="node"><title>Post</title>
<path fill="none" stroke="black" d="M337,-344.5C337,-344.5 560.725,-344.5 560.725,-344.5 566.725,-344.5 572.725,-350.5 572.725,-356.5 572.725,-356.5 572.725,-460.5 572.725,-460.5 572.725,-466.5 566.725,-472.5 560.725,-472.5 560.725,-472.5 337,-472.5 337,-472.5 331,-472.5 325,-466.5 325,-460.5 325,-460.5 325,-356.5 325,-356.5 325,-350.5 331,-344.5 337,-344.5"/>
<text text-anchor="middle" x="448.862" y="-457.3" font-family="Times,serif" font-size="14.00">Post</text>
<polyline fill="none" stroke="black" points="325,-450.5 572.725,-450.5 "/>
<text text-anchor="start" x="333" y="-435.3" font-family="Times,serif" font-size="14.00">id :integer</text>
<text text-anchor="start" x="333" y="-421.3" font-family="Times,serif" font-size="14.00">title :character varying</text>
<text text-anchor="start" x="333" y="-407.3" font-family="Times,serif" font-size="14.00">body :text</text>
<text text-anchor="start" x="333" y="-393.3" font-family="Times,serif" font-size="14.00">created_at :timestamp without time zone</text>
<text text-anchor="start" x="333" y="-379.3" font-family="Times,serif" font-size="14.00">updated_at :timestamp without time zone</text>
<text text-anchor="start" x="333" y="-365.3" font-family="Times,serif" font-size="14.00">user_id :integer</text>
<text text-anchor="start" x="333" y="-351.3" font-family="Times,serif" font-size="14.00">category_id :integer</text>
</g>
<!-- Category&#45;&gt;Post -->
<g id="edge1" class="edge"><title>Category&#45;&gt;Post</title>
<path fill="none" stroke="#581238" d="M448.862,-551.097C448.862,-530.288 448.862,-505.756 448.862,-483.009"/>
<ellipse fill="none" stroke="#581238" cx="448.862" cy="-555.365" rx="4" ry="4"/>
<polygon fill="#581238" stroke="#581238" points="448.862,-482.703 453.362,-472.702 448.862,-477.703 448.862,-472.703 448.862,-472.703 448.862,-472.703 448.862,-477.703 444.362,-472.703 448.862,-482.703 448.862,-482.703"/>
</g>
<!-- Ckeditor::Asset -->
<g id="node4" class="node"><title>Ckeditor::Asset</title>
<path fill="none" stroke="black" d="M603,-510.5C603,-510.5 826.725,-510.5 826.725,-510.5 832.725,-510.5 838.725,-516.5 838.725,-522.5 838.725,-522.5 838.725,-682.5 838.725,-682.5 838.725,-688.5 832.725,-694.5 826.725,-694.5 826.725,-694.5 603,-694.5 603,-694.5 597,-694.5 591,-688.5 591,-682.5 591,-682.5 591,-522.5 591,-522.5 591,-516.5 597,-510.5 603,-510.5"/>
<text text-anchor="middle" x="714.862" y="-679.3" font-family="Times,serif" font-size="14.00">Ckeditor::Asset</text>
<polyline fill="none" stroke="black" points="591,-672.5 838.725,-672.5 "/>
<text text-anchor="start" x="599" y="-657.3" font-family="Times,serif" font-size="14.00">id :integer</text>
<text text-anchor="start" x="599" y="-643.3" font-family="Times,serif" font-size="14.00">data_file_name :character varying</text>
<text text-anchor="start" x="599" y="-629.3" font-family="Times,serif" font-size="14.00">data_content_type :character varying</text>
<text text-anchor="start" x="599" y="-615.3" font-family="Times,serif" font-size="14.00">data_file_size :integer</text>
<text text-anchor="start" x="599" y="-601.3" font-family="Times,serif" font-size="14.00">assetable_id :integer</text>
<text text-anchor="start" x="599" y="-587.3" font-family="Times,serif" font-size="14.00">assetable_type :character varying(30)</text>
<text text-anchor="start" x="599" y="-573.3" font-family="Times,serif" font-size="14.00">type :character varying(30)</text>
<text text-anchor="start" x="599" y="-559.3" font-family="Times,serif" font-size="14.00">width :integer</text>
<text text-anchor="start" x="599" y="-545.3" font-family="Times,serif" font-size="14.00">height :integer</text>
<text text-anchor="start" x="599" y="-531.3" font-family="Times,serif" font-size="14.00">created_at :timestamp without time zone</text>
<text text-anchor="start" x="599" y="-517.3" font-family="Times,serif" font-size="14.00">updated_at :timestamp without time zone</text>
</g>
<!-- Ckeditor::AttachmentFile -->
<g id="node5" class="node"><title>Ckeditor::AttachmentFile</title>
<path fill="none" stroke="black" d="M869,-510.5C869,-510.5 1092.72,-510.5 1092.72,-510.5 1098.72,-510.5 1104.72,-516.5 1104.72,-522.5 1104.72,-522.5 1104.72,-682.5 1104.72,-682.5 1104.72,-688.5 1098.72,-694.5 1092.72,-694.5 1092.72,-694.5 869,-694.5 869,-694.5 863,-694.5 857,-688.5 857,-682.5 857,-682.5 857,-522.5 857,-522.5 857,-516.5 863,-510.5 869,-510.5"/>
<text text-anchor="middle" x="980.862" y="-679.3" font-family="Times,serif" font-size="14.00">Ckeditor::AttachmentFile</text>
<polyline fill="none" stroke="black" points="857,-672.5 1104.72,-672.5 "/>
<text text-anchor="start" x="865" y="-657.3" font-family="Times,serif" font-size="14.00">id :integer</text>
<text text-anchor="start" x="865" y="-643.3" font-family="Times,serif" font-size="14.00">data_file_name :character varying</text>
<text text-anchor="start" x="865" y="-629.3" font-family="Times,serif" font-size="14.00">data_content_type :character varying</text>
<text text-anchor="start" x="865" y="-615.3" font-family="Times,serif" font-size="14.00">data_file_size :integer</text>
<text text-anchor="start" x="865" y="-601.3" font-family="Times,serif" font-size="14.00">assetable_id :integer</text>
<text text-anchor="start" x="865" y="-587.3" font-family="Times,serif" font-size="14.00">assetable_type :character varying(30)</text>
<text text-anchor="start" x="865" y="-573.3" font-family="Times,serif" font-size="14.00">type :character varying(30)</text>
<text text-anchor="start" x="865" y="-559.3" font-family="Times,serif" font-size="14.00">width :integer</text>
<text text-anchor="start" x="865" y="-545.3" font-family="Times,serif" font-size="14.00">height :integer</text>
<text text-anchor="start" x="865" y="-531.3" font-family="Times,serif" font-size="14.00">created_at :timestamp without time zone</text>
<text text-anchor="start" x="865" y="-517.3" font-family="Times,serif" font-size="14.00">updated_at :timestamp without time zone</text>
</g>
<!-- Ckeditor::Picture -->
<g id="node6" class="node"><title>Ckeditor::Picture</title>
<path fill="none" stroke="black" d="M1135,-510.5C1135,-510.5 1358.72,-510.5 1358.72,-510.5 1364.72,-510.5 1370.72,-516.5 1370.72,-522.5 1370.72,-522.5 1370.72,-682.5 1370.72,-682.5 1370.72,-688.5 1364.72,-694.5 1358.72,-694.5 1358.72,-694.5 1135,-694.5 1135,-694.5 1129,-694.5 1123,-688.5 1123,-682.5 1123,-682.5 1123,-522.5 1123,-522.5 1123,-516.5 1129,-510.5 1135,-510.5"/>
<text text-anchor="middle" x="1246.86" y="-679.3" font-family="Times,serif" font-size="14.00">Ckeditor::Picture</text>
<polyline fill="none" stroke="black" points="1123,-672.5 1370.72,-672.5 "/>
<text text-anchor="start" x="1131" y="-657.3" font-family="Times,serif" font-size="14.00">id :integer</text>
<text text-anchor="start" x="1131" y="-643.3" font-family="Times,serif" font-size="14.00">data_file_name :character varying</text>
<text text-anchor="start" x="1131" y="-629.3" font-family="Times,serif" font-size="14.00">data_content_type :character varying</text>
<text text-anchor="start" x="1131" y="-615.3" font-family="Times,serif" font-size="14.00">data_file_size :integer</text>
<text text-anchor="start" x="1131" y="-601.3" font-family="Times,serif" font-size="14.00">assetable_id :integer</text>
<text text-anchor="start" x="1131" y="-587.3" font-family="Times,serif" font-size="14.00">assetable_type :character varying(30)</text>
<text text-anchor="start" x="1131" y="-573.3" font-family="Times,serif" font-size="14.00">type :character varying(30)</text>
<text text-anchor="start" x="1131" y="-559.3" font-family="Times,serif" font-size="14.00">width :integer</text>
<text text-anchor="start" x="1131" y="-545.3" font-family="Times,serif" font-size="14.00">height :integer</text>
<text text-anchor="start" x="1131" y="-531.3" font-family="Times,serif" font-size="14.00">created_at :timestamp without time zone</text>
<text text-anchor="start" x="1131" y="-517.3" font-family="Times,serif" font-size="14.00">updated_at :timestamp without time zone</text>
</g>
<!-- Comment -->
<g id="node7" class="node"><title>Comment</title>
<path fill="none" stroke="black" d="M12,-0.5C12,-0.5 235.725,-0.5 235.725,-0.5 241.725,-0.5 247.725,-6.5 247.725,-12.5 247.725,-12.5 247.725,-102.5 247.725,-102.5 247.725,-108.5 241.725,-114.5 235.725,-114.5 235.725,-114.5 12,-114.5 12,-114.5 6,-114.5 0,-108.5 0,-102.5 0,-102.5 0,-12.5 0,-12.5 0,-6.5 6,-0.5 12,-0.5"/>
<text text-anchor="middle" x="123.862" y="-99.3" font-family="Times,serif" font-size="14.00">Comment</text>
<polyline fill="none" stroke="black" points="0,-92.5 247.725,-92.5 "/>
<text text-anchor="start" x="8" y="-77.3" font-family="Times,serif" font-size="14.00">id :integer</text>
<text text-anchor="start" x="8" y="-63.3" font-family="Times,serif" font-size="14.00">body :text</text>
<text text-anchor="start" x="8" y="-49.3" font-family="Times,serif" font-size="14.00">created_at :timestamp without time zone</text>
<text text-anchor="start" x="8" y="-35.3" font-family="Times,serif" font-size="14.00">updated_at :timestamp without time zone</text>
<text text-anchor="start" x="8" y="-21.3" font-family="Times,serif" font-size="14.00">post_id :integer</text>
<text text-anchor="start" x="8" y="-7.3" font-family="Times,serif" font-size="14.00">user_id :integer</text>
</g>
<!-- Contact -->
<g id="node8" class="node"><title>Contact</title>
<path fill="none" stroke="black" d="M1401,-538.5C1401,-538.5 1624.72,-538.5 1624.72,-538.5 1630.72,-538.5 1636.72,-544.5 1636.72,-550.5 1636.72,-550.5 1636.72,-654.5 1636.72,-654.5 1636.72,-660.5 1630.72,-666.5 1624.72,-666.5 1624.72,-666.5 1401,-666.5 1401,-666.5 1395,-666.5 1389,-660.5 1389,-654.5 1389,-654.5 1389,-550.5 1389,-550.5 1389,-544.5 1395,-538.5 1401,-538.5"/>
<text text-anchor="middle" x="1512.86" y="-651.3" font-family="Times,serif" font-size="14.00">Contact</text>
<polyline fill="none" stroke="black" points="1389,-644.5 1636.72,-644.5 "/>
<text text-anchor="start" x="1397" y="-629.3" font-family="Times,serif" font-size="14.00">id :integer</text>
<text text-anchor="start" x="1397" y="-615.3" font-family="Times,serif" font-size="14.00">email :character varying</text>
<text text-anchor="start" x="1397" y="-601.3" font-family="Times,serif" font-size="14.00">name :character varying</text>
<text text-anchor="start" x="1397" y="-587.3" font-family="Times,serif" font-size="14.00">subject :character varying</text>
<text text-anchor="start" x="1397" y="-573.3" font-family="Times,serif" font-size="14.00">message :text</text>
<text text-anchor="start" x="1397" y="-559.3" font-family="Times,serif" font-size="14.00">created_at :timestamp without time zone</text>
<text text-anchor="start" x="1397" y="-545.3" font-family="Times,serif" font-size="14.00">updated_at :timestamp without time zone</text>
</g>
<!-- Favourite -->
<g id="node9" class="node"><title>Favourite</title>
<path fill="none" stroke="black" d="M278,-7.5C278,-7.5 501.725,-7.5 501.725,-7.5 507.725,-7.5 513.725,-13.5 513.725,-19.5 513.725,-19.5 513.725,-95.5 513.725,-95.5 513.725,-101.5 507.725,-107.5 501.725,-107.5 501.725,-107.5 278,-107.5 278,-107.5 272,-107.5 266,-101.5 266,-95.5 266,-95.5 266,-19.5 266,-19.5 266,-13.5 272,-7.5 278,-7.5"/>
<text text-anchor="middle" x="389.862" y="-92.3" font-family="Times,serif" font-size="14.00">Favourite</text>
<polyline fill="none" stroke="black" points="266,-85.5 513.725,-85.5 "/>
<text text-anchor="start" x="274" y="-70.3" font-family="Times,serif" font-size="14.00">id :integer</text>
<text text-anchor="start" x="274" y="-56.3" font-family="Times,serif" font-size="14.00">user_id :integer</text>
<text text-anchor="start" x="274" y="-42.3" font-family="Times,serif" font-size="14.00">post_id :integer</text>
<text text-anchor="start" x="274" y="-28.3" font-family="Times,serif" font-size="14.00">created_at :timestamp without time zone</text>
<text text-anchor="start" x="274" y="-14.3" font-family="Times,serif" font-size="14.00">updated_at :timestamp without time zone</text>
</g>
<!-- Like -->
<g id="node10" class="node"><title>Like</title>
<path fill="none" stroke="black" d="M544,-7.5C544,-7.5 767.725,-7.5 767.725,-7.5 773.725,-7.5 779.725,-13.5 779.725,-19.5 779.725,-19.5 779.725,-95.5 779.725,-95.5 779.725,-101.5 773.725,-107.5 767.725,-107.5 767.725,-107.5 544,-107.5 544,-107.5 538,-107.5 532,-101.5 532,-95.5 532,-95.5 532,-19.5 532,-19.5 532,-13.5 538,-7.5 544,-7.5"/>
<text text-anchor="middle" x="655.862" y="-92.3" font-family="Times,serif" font-size="14.00">Like</text>
<polyline fill="none" stroke="black" points="532,-85.5 779.725,-85.5 "/>
<text text-anchor="start" x="540" y="-70.3" font-family="Times,serif" font-size="14.00">id :integer</text>
<text text-anchor="start" x="540" y="-56.3" font-family="Times,serif" font-size="14.00">user_id :integer</text>
<text text-anchor="start" x="540" y="-42.3" font-family="Times,serif" font-size="14.00">post_id :integer</text>
<text text-anchor="start" x="540" y="-28.3" font-family="Times,serif" font-size="14.00">created_at :timestamp without time zone</text>
<text text-anchor="start" x="540" y="-14.3" font-family="Times,serif" font-size="14.00">updated_at :timestamp without time zone</text>
</g>
<!-- Post&#45;&gt;Comment -->
<g id="edge2" class="edge"><title>Post&#45;&gt;Comment</title>
<path fill="none" stroke="#474645" d="M316.818,-386.828C247.021,-373.058 171.234,-352.595 148.862,-326 102.313,-270.663 102.975,-184.246 110.738,-124.687"/>
<ellipse fill="none" stroke="#474645" cx="320.932" cy="-387.627" rx="4.00001" ry="4.00001"/>
<polygon fill="#474645" stroke="#474645" points="110.76,-124.534 116.605,-115.257 111.454,-119.583 112.149,-114.631 112.149,-114.631 112.149,-114.631 111.454,-119.583 107.693,-114.006 110.76,-124.534 110.76,-124.534"/>
</g>
<!-- Post&#45;&gt;Favourite -->
<g id="edge5" class="edge"><title>Post&#45;&gt;Favourite</title>
<path fill="none" stroke="#76403f" d="M548.508,-336.887C551.414,-329.17 552.439,-320.867 550.862,-312 538.674,-243.473 534.415,-223.602 496.862,-165 485.439,-147.174 470.57,-129.993 455.569,-114.826"/>
<ellipse fill="none" stroke="#76403f" cx="546.691" cy="-340.783" rx="4.00002" ry="4.00002"/>
<polygon fill="#76403f" stroke="#76403f" points="455.319,-114.579 451.372,-104.348 451.764,-111.063 448.208,-107.548 448.208,-107.548 448.208,-107.548 451.764,-111.063 445.044,-110.747 455.319,-114.579 455.319,-114.579"/>
</g>
<!-- Post&#45;&gt;Like -->
<g id="edge7" class="edge"><title>Post&#45;&gt;Like</title>
<path fill="none" stroke="#679d3a" d="M554.385,-338.473C558.122,-334.461 561.639,-330.301 564.862,-326 611.624,-263.602 635.399,-175.559 646.705,-117.776"/>
<ellipse fill="none" stroke="#679d3a" cx="551.551" cy="-341.38" rx="4.00002" ry="4.00002"/>
<polygon fill="#679d3a" stroke="#679d3a" points="646.751,-117.533 653.031,-108.543 647.68,-112.62 648.609,-107.707 648.609,-107.707 648.609,-107.707 647.68,-112.62 644.188,-106.871 646.751,-117.533 646.751,-117.533"/>
</g>
<!-- Tag -->
<g id="node12" class="node"><title>Tag</title>
<path fill="none" stroke="black" d="M658,-186.5C658,-186.5 881.725,-186.5 881.725,-186.5 887.725,-186.5 893.725,-192.5 893.725,-198.5 893.725,-198.5 893.725,-260.5 893.725,-260.5 893.725,-266.5 887.725,-272.5 881.725,-272.5 881.725,-272.5 658,-272.5 658,-272.5 652,-272.5 646,-266.5 646,-260.5 646,-260.5 646,-198.5 646,-198.5 646,-192.5 652,-186.5 658,-186.5"/>
<text text-anchor="middle" x="769.862" y="-257.3" font-family="Times,serif" font-size="14.00">Tag</text>
<polyline fill="none" stroke="black" points="646,-250.5 893.725,-250.5 "/>
<text text-anchor="start" x="654" y="-235.3" font-family="Times,serif" font-size="14.00">id :integer</text>
<text text-anchor="start" x="654" y="-221.3" font-family="Times,serif" font-size="14.00">name :character varying</text>
<text text-anchor="start" x="654" y="-207.3" font-family="Times,serif" font-size="14.00">created_at :timestamp without time zone</text>
<text text-anchor="start" x="654" y="-193.3" font-family="Times,serif" font-size="14.00">updated_at :timestamp without time zone</text>
</g>
<!-- Post&#45;&gt;Tag -->
<g id="edge4" class="edge"><title>Post&#45;&gt;Tag</title>
<path fill="none" stroke="#b875b2" d="M582.353,-351.555C599.258,-343.452 616.131,-334.844 631.862,-326 656.857,-311.948 683.028,-294.586 705.778,-278.536"/>
<polygon fill="#b875b2" stroke="#b875b2" points="582.002,-351.721 571.038,-351.937 577.484,-353.862 572.965,-356.003 572.965,-356.003 572.965,-356.003 577.484,-353.862 574.892,-360.07 582.002,-351.721 582.002,-351.721"/>
<polygon fill="#b875b2" stroke="#b875b2" points="705.848,-278.487 716.605,-276.358 709.922,-275.589 713.997,-272.691 713.997,-272.691 713.997,-272.691 709.922,-275.589 711.388,-269.024 705.848,-278.487 705.848,-278.487"/>
</g>
<!-- Tagging -->
<g id="node13" class="node"><title>Tagging</title>
<path fill="none" stroke="black" d="M810,-7.5C810,-7.5 1033.72,-7.5 1033.72,-7.5 1039.72,-7.5 1045.72,-13.5 1045.72,-19.5 1045.72,-19.5 1045.72,-95.5 1045.72,-95.5 1045.72,-101.5 1039.72,-107.5 1033.72,-107.5 1033.72,-107.5 810,-107.5 810,-107.5 804,-107.5 798,-101.5 798,-95.5 798,-95.5 798,-19.5 798,-19.5 798,-13.5 804,-7.5 810,-7.5"/>
<text text-anchor="middle" x="921.862" y="-92.3" font-family="Times,serif" font-size="14.00">Tagging</text>
<polyline fill="none" stroke="black" points="798,-85.5 1045.72,-85.5 "/>
<text text-anchor="start" x="806" y="-70.3" font-family="Times,serif" font-size="14.00">id :integer</text>
<text text-anchor="start" x="806" y="-56.3" font-family="Times,serif" font-size="14.00">post_id :integer</text>
<text text-anchor="start" x="806" y="-42.3" font-family="Times,serif" font-size="14.00">tag_id :integer</text>
<text text-anchor="start" x="806" y="-28.3" font-family="Times,serif" font-size="14.00">created_at :timestamp without time zone</text>
<text text-anchor="start" x="806" y="-14.3" font-family="Times,serif" font-size="14.00">updated_at :timestamp without time zone</text>
</g>
<!-- Post&#45;&gt;Tagging -->
<g id="edge3" class="edge"><title>Post&#45;&gt;Tagging</title>
<path fill="none" stroke="#be3d88" d="M580.942,-391.619C699.671,-374.422 861.553,-342.731 902.862,-294 943.767,-245.747 942.283,-170.166 934.638,-117.695"/>
<ellipse fill="none" stroke="#be3d88" cx="576.788" cy="-392.214" rx="4.00001" ry="4.00001"/>
<polygon fill="#be3d88" stroke="#be3d88" points="934.592,-117.402 937.483,-106.824 933.815,-112.463 933.037,-107.523 933.037,-107.523 933.037,-107.523 933.815,-112.463 928.592,-108.223 934.592,-117.402 934.592,-117.402"/>
</g>
<!-- User -->
<g id="node14" class="node"><title>User</title>
<path fill="none" stroke="black" d="M252,-165.5C252,-165.5 475.725,-165.5 475.725,-165.5 481.725,-165.5 487.725,-171.5 487.725,-177.5 487.725,-177.5 487.725,-281.5 487.725,-281.5 487.725,-287.5 481.725,-293.5 475.725,-293.5 475.725,-293.5 252,-293.5 252,-293.5 246,-293.5 240,-287.5 240,-281.5 240,-281.5 240,-177.5 240,-177.5 240,-171.5 246,-165.5 252,-165.5"/>
<text text-anchor="middle" x="363.862" y="-278.3" font-family="Times,serif" font-size="14.00">User</text>
<polyline fill="none" stroke="black" points="240,-271.5 487.725,-271.5 "/>
<text text-anchor="start" x="248" y="-256.3" font-family="Times,serif" font-size="14.00">id :integer</text>
<text text-anchor="start" x="248" y="-242.3" font-family="Times,serif" font-size="14.00">first_name :character varying</text>
<text text-anchor="start" x="248" y="-228.3" font-family="Times,serif" font-size="14.00">last_name :character varying</text>
<text text-anchor="start" x="248" y="-214.3" font-family="Times,serif" font-size="14.00">email :character varying</text>
<text text-anchor="start" x="248" y="-200.3" font-family="Times,serif" font-size="14.00">password_digest :character varying</text>
<text text-anchor="start" x="248" y="-186.3" font-family="Times,serif" font-size="14.00">created_at :timestamp without time zone</text>
<text text-anchor="start" x="248" y="-172.3" font-family="Times,serif" font-size="14.00">updated_at :timestamp without time zone</text>
</g>
<!-- Post&#45;&gt;User -->
<g id="edge6" class="edge"><title>Post&#45;&gt;User</title>
<path fill="none" stroke="#fd2e5c" d="M314.575,-385.535C249.152,-371.813 180.409,-351.82 160.883,-326 132.517,-288.492 176.069,-265.121 230.006,-250.895"/>
<polygon fill="#fd2e5c" stroke="#fd2e5c" points="314.822,-385.585 323.711,-392.006 319.72,-386.592 324.617,-387.598 324.617,-387.598 324.617,-387.598 319.72,-386.592 325.523,-383.19 314.822,-385.585 314.822,-385.585"/>
<polygon fill="#fd2e5c" stroke="#fd2e5c" points="230.122,-250.866 240.917,-252.795 234.971,-249.648 239.821,-248.43 239.821,-248.43 239.821,-248.43 234.971,-249.648 238.725,-244.066 230.122,-250.866 230.122,-250.866"/>
<text text-anchor="middle" x="209.852" y="-314.8" font-family="Times,serif" font-size="14.00">favouriting_users</text>
</g>
<!-- Post&#45;&gt;User -->
<g id="edge8" class="edge"><title>Post&#45;&gt;User</title>
<path fill="none" stroke="#ea22da" d="M316.518,-362.014C302.653,-352.191 290.378,-340.321 281.421,-326 276.656,-318.382 275.536,-310.753 277.014,-303.312"/>
<polygon fill="#ea22da" stroke="#ea22da" points="316.53,-362.022 322.359,-371.31 320.692,-364.793 324.853,-367.565 324.853,-367.565 324.853,-367.565 320.692,-364.793 327.347,-363.819 316.53,-362.022 316.53,-362.022"/>
<polygon fill="#ea22da" stroke="#ea22da" points="277.086,-303.103 284.617,-295.132 278.726,-298.379 280.366,-293.656 280.366,-293.656 280.366,-293.656 278.726,-298.379 276.114,-292.18 277.086,-303.103 277.086,-303.103"/>
<text text-anchor="middle" x="315.083" y="-314.8" font-family="Times,serif" font-size="14.00">liking_users</text>
</g>
<!-- Tag&#45;&gt;Tagging -->
<g id="edge9" class="edge"><title>Tag&#45;&gt;Tagging</title>
<path fill="none" stroke="#da9b4f" d="M812.798,-180.48C830.946,-160.183 852.218,-136.392 871.133,-115.236"/>
<ellipse fill="none" stroke="#da9b4f" cx="810.102" cy="-183.496" rx="4.00002" ry="4.00002"/>
<polygon fill="#da9b4f" stroke="#da9b4f" points="871.32,-115.028 881.34,-110.572 874.653,-111.3 877.985,-107.573 877.985,-107.573 877.985,-107.573 874.653,-111.3 874.631,-104.574 871.32,-115.028 871.32,-115.028"/>
</g>
<!-- User&#45;&gt;Comment -->
<g id="edge11" class="edge"><title>User&#45;&gt;Comment</title>
<path fill="none" stroke="#fd269c" d="M308.411,-159.374C299.119,-149.877 289.138,-140.743 278.862,-133 271.921,-127.77 264.555,-122.765 256.949,-118.004"/>
<ellipse fill="none" stroke="#fd269c" cx="311.339" cy="-162.434" rx="4.00002" ry="4.00002"/>
<polygon fill="#fd269c" stroke="#fd269c" points="256.471,-117.714 250.257,-108.679 252.197,-115.12 247.922,-112.526 247.922,-112.526 247.922,-112.526 252.197,-115.12 245.588,-116.373 256.471,-117.714 256.471,-117.714"/>
</g>
<!-- User&#45;&gt;Comment -->
<g id="edge12" class="edge"><title>User&#45;&gt;Comment</title>
<path fill="none" stroke="#e19d48" d="M230.715,-179.969C213.191,-170.515 196.238,-159.559 181.531,-147 173.417,-140.07 166.012,-131.718 159.413,-122.949"/>
<polygon fill="#e19d48" stroke="#e19d48" points="231.057,-180.148 237.838,-188.766 235.489,-182.462 239.921,-184.777 239.921,-184.777 239.921,-184.777 235.489,-182.462 242.004,-180.788 231.057,-180.148 231.057,-180.148"/>
<polygon fill="#e19d48" stroke="#e19d48" points="159.404,-122.937 157.24,-112.187 156.493,-118.872 153.582,-114.807 153.582,-114.807 153.582,-114.807 156.493,-118.872 149.923,-117.427 159.404,-122.937 159.404,-122.937"/>
<text text-anchor="middle" x="227.528" y="-135.8" font-family="Times,serif" font-size="14.00">posts_comments</text>
</g>
<!-- User&#45;&gt;Favourite -->
<g id="edge13" class="edge"><title>User&#45;&gt;Favourite</title>
<path fill="none" stroke="#b9f009" d="M374.786,-157.073C376.801,-143.9 378.884,-130.282 380.835,-117.526"/>
<ellipse fill="none" stroke="#b9f009" cx="374.149" cy="-161.244" rx="4.00001" ry="4.00001"/>
<polygon fill="#b9f009" stroke="#b9f009" points="380.855,-117.392 386.815,-108.187 381.611,-112.45 382.367,-107.507 382.367,-107.507 382.367,-107.507 381.611,-112.45 377.919,-106.827 380.855,-117.392 380.855,-117.392"/>
</g>
<!-- User&#45;&gt;Like -->
<g id="edge15" class="edge"><title>User&#45;&gt;Like</title>
<path fill="none" stroke="#91e8ea" d="M479.131,-161.392C506.805,-145.28 536.023,-128.27 562.558,-112.821"/>
<ellipse fill="none" stroke="#91e8ea" cx="475.634" cy="-163.427" rx="4.00002" ry="4.00002"/>
<polygon fill="#91e8ea" stroke="#91e8ea" points="562.806,-112.677 573.712,-111.534 567.127,-110.161 571.448,-107.645 571.448,-107.645 571.448,-107.645 567.127,-110.161 569.184,-103.756 562.806,-112.677 562.806,-112.677"/>
</g>
<!-- User&#45;&gt;Post -->
<g id="edge10" class="edge"><title>User&#45;&gt;Post</title>
<path fill="none" stroke="#338238" d="M369.666,-301.699C371.692,-310.101 374.36,-318.386 377.862,-326 379.404,-329.351 381.127,-332.668 382.995,-335.936"/>
<ellipse fill="none" stroke="#338238" cx="368.762" cy="-297.535" rx="4.00001" ry="4.00001"/>
<polygon fill="#338238" stroke="#338238" points="383.005,-335.952 384.423,-346.826 385.629,-340.208 388.253,-344.464 388.253,-344.464 388.253,-344.464 385.629,-340.208 392.083,-342.103 383.005,-335.952 383.005,-335.952"/>
</g>
<!-- User&#45;&gt;Post -->
<g id="edge14" class="edge"><title>User&#45;&gt;Post</title>
<path fill="none" stroke="#f35e06" d="M387.992,-303.213C391.125,-311.004 394.477,-318.732 397.993,-326 399.491,-329.097 401.078,-332.223 402.73,-335.355"/>
<polygon fill="#f35e06" stroke="#f35e06" points="387.917,-303.022 388.474,-292.071 386.1,-298.364 384.282,-293.706 384.282,-293.706 384.282,-293.706 386.1,-298.364 380.09,-295.342 387.917,-303.022 387.917,-303.022"/>
<polygon fill="#f35e06" stroke="#f35e06" points="402.751,-335.394 403.585,-346.328 405.144,-339.784 407.537,-344.174 407.537,-344.174 407.537,-344.174 405.144,-339.784 411.488,-342.021 402.751,-335.394 402.751,-335.394"/>
<text text-anchor="middle" x="438.297" y="-314.8" font-family="Times,serif" font-size="14.00">favourite_post</text>
</g>
<!-- User&#45;&gt;Post -->
<g id="edge16" class="edge"><title>User&#45;&gt;Post</title>
<path fill="none" stroke="#03a1c1" d="M472.661,-301.667C474.939,-304.99 477.019,-308.434 478.862,-312 482.497,-319.031 483.889,-326.583 483.721,-334.247"/>
<polygon fill="#03a1c1" stroke="#03a1c1" points="472.639,-301.637 470.203,-290.945 469.625,-297.647 466.612,-293.657 466.612,-293.657 466.612,-293.657 469.625,-297.647 463.021,-296.369 472.639,-301.637 472.639,-301.637"/>
<polygon fill="#03a1c1" stroke="#03a1c1" points="483.704,-334.409 478.184,-343.884 483.182,-339.382 482.66,-344.354 482.66,-344.354 482.66,-344.354 483.182,-339.382 487.135,-344.824 483.704,-334.409 483.704,-334.409"/>
<text text-anchor="middle" x="514.752" y="-314.8" font-family="Times,serif" font-size="14.00">liked_posts</text>
</g>
</g>
</svg>
