<?xml version="1.0" encoding="UTF-8" standalone="no"?>
<!DOCTYPE svg PUBLIC "-//W3C//DTD SVG 1.1//EN"
 "http://www.w3.org/Graphics/SVG/1.1/DTD/svg11.dtd">
<!-- Generated by graphviz version 2.38.0 (20140413.2041)
 -->
<!-- Title: models_diagram Pages: 1 -->
<svg width="1087pt" height="225pt"
 viewBox="0.00 0.00 1086.82 225.00" xmlns="http://www.w3.org/2000/svg" xmlns:xlink="http://www.w3.org/1999/xlink">
<g id="graph0" class="graph" transform="scale(1 1) rotate(0) translate(4 221)">
<title>models_diagram</title>
<polygon fill="none" stroke="none" points="-4,4 -4,-221 1082.82,-221 1082.82,4 -4,4"/>
<!-- _diagram_info -->
<g id="node1" class="node"><title>_diagram_info</title>
<text text-anchor="start" x="8" y="-202.6" font-family="Times,serif" font-size="13.00">Models diagram</text>
<text text-anchor="start" x="8" y="-189.6" font-family="Times,serif" font-size="13.00">Date: Nov 13 2015 &#45; 15:43</text>
<text text-anchor="start" x="8" y="-176.6" font-family="Times,serif" font-size="13.00">Migration version: 20151112032659</text>
<text text-anchor="start" x="8" y="-163.6" font-family="Times,serif" font-size="13.00">Generated by RailRoady 1.4.1</text>
<text text-anchor="start" x="8" y="-150.6" font-family="Times,serif" font-size="13.00">http://railroady.prestonlee.com</text>
</g>
<!-- Ability -->
<g id="node2" class="node"><title>Ability</title>
<polygon fill="none" stroke="black" points="279.882,-198.5 224.542,-198.5 224.542,-162.5 279.882,-162.5 279.882,-198.5"/>
<text text-anchor="middle" x="252.212" y="-176.3" font-family="Times,serif" font-size="14.00">Ability</text>
</g>
<!-- Category -->
<g id="node3" class="node"><title>Category</title>
<ellipse fill="none" stroke="black" cx="340.212" cy="-180.5" rx="42.5456" ry="18"/>
<text text-anchor="middle" x="340.212" y="-176.3" font-family="Times,serif" font-size="14.00">Category</text>
</g>
<!-- Post -->
<g id="node9" class="node"><title>Post</title>
<ellipse fill="none" stroke="black" cx="373.212" cy="-90" rx="27" ry="18"/>
<text text-anchor="middle" x="373.212" y="-85.8" font-family="Times,serif" font-size="14.00">Post</text>
</g>
<!-- Category&#45;&gt;Post -->
<g id="edge1" class="edge"><title>Category&#45;&gt;Post</title>
<path fill="none" stroke="#120a1a" d="M349.515,-154.55C353.835,-142.965 358.973,-129.185 363.359,-117.422"/>
<ellipse fill="none" stroke="#120a1a" cx="347.972" cy="-158.688" rx="4.00001" ry="4.00001"/>
<polygon fill="#120a1a" stroke="#120a1a" points="363.486,-117.081 371.197,-109.283 365.233,-112.396 366.98,-107.711 366.98,-107.711 366.98,-107.711 365.233,-112.396 362.764,-106.139 363.486,-117.081 363.486,-117.081"/>
</g>
<!-- Ckeditor::Asset -->
<g id="node4" class="node"><title>Ckeditor::Asset</title>
<ellipse fill="none" stroke="black" cx="539.212" cy="-180.5" rx="65.7408" ry="18"/>
<text text-anchor="middle" x="539.212" y="-176.3" font-family="Times,serif" font-size="14.00">Ckeditor::Asset</text>
</g>
<!-- Ckeditor::AttachmentFile -->
<g id="node5" class="node"><title>Ckeditor::AttachmentFile</title>
<ellipse fill="none" stroke="black" cx="724.212" cy="-180.5" rx="100.962" ry="18"/>
<text text-anchor="middle" x="724.212" y="-176.3" font-family="Times,serif" font-size="14.00">Ckeditor::AttachmentFile</text>
</g>
<!-- Ckeditor::Picture -->
<g id="node6" class="node"><title>Ckeditor::Picture</title>
<ellipse fill="none" stroke="black" cx="914.212" cy="-180.5" rx="71.0358" ry="18"/>
<text text-anchor="middle" x="914.212" y="-176.3" font-family="Times,serif" font-size="14.00">Ckeditor::Picture</text>
</g>
<!-- Comment -->
<g id="node7" class="node"><title>Comment</title>
<ellipse fill="none" stroke="black" cx="400.212" cy="-18" rx="44.9768" ry="18"/>
<text text-anchor="middle" x="400.212" y="-13.8" font-family="Times,serif" font-size="14.00">Comment</text>
</g>
<!-- Contact -->
<g id="node8" class="node"><title>Contact</title>
<ellipse fill="none" stroke="black" cx="1041.21" cy="-180.5" rx="37.7266" ry="18"/>
<text text-anchor="middle" x="1041.21" y="-176.3" font-family="Times,serif" font-size="14.00">Contact</text>
</g>
<!-- Post&#45;&gt;Comment -->
<g id="edge2" class="edge"><title>Post&#45;&gt;Comment</title>
<path fill="none" stroke="#cb47da" d="M382.554,-64.7779C384.959,-58.544 387.558,-51.8046 390.004,-45.4634"/>
<ellipse fill="none" stroke="#cb47da" cx="381.05" cy="-68.679" rx="4.00001" ry="4.00001"/>
<polygon fill="#cb47da" stroke="#cb47da" points="390.073,-45.2862 397.87,-37.5757 391.872,-40.6212 393.671,-35.9562 393.671,-35.9562 393.671,-35.9562 391.872,-40.6212 389.473,-34.3368 390.073,-45.2862 390.073,-45.2862"/>
</g>
<!-- User -->
<g id="node10" class="node"><title>User</title>
<ellipse fill="none" stroke="black" cx="428.212" cy="-180.5" rx="27" ry="18"/>
<text text-anchor="middle" x="428.212" y="-176.3" font-family="Times,serif" font-size="14.00">User</text>
</g>
<!-- User&#45;&gt;Comment -->
<g id="edge4" class="edge"><title>User&#45;&gt;Comment</title>
<path fill="none" stroke="#b655d0" d="M423.777,-154.079C418.647,-124.675 410.235,-76.4552 404.971,-46.2837"/>
<ellipse fill="none" stroke="#b655d0" cx="424.528" cy="-158.383" rx="4.00001" ry="4.00001"/>
<polygon fill="#b655d0" stroke="#b655d0" points="404.905,-45.904 407.62,-35.2794 404.046,-40.9784 403.187,-36.0528 403.187,-36.0528 403.187,-36.0528 404.046,-40.9784 398.754,-36.8262 404.905,-45.904 404.905,-45.904"/>
</g>
<!-- User&#45;&gt;Post -->
<g id="edge3" class="edge"><title>User&#45;&gt;Post</title>
<path fill="none" stroke="#de3754" d="M413.894,-156.461C406.119,-143.95 396.502,-128.477 388.571,-115.715"/>
<ellipse fill="none" stroke="#de3754" cx="416.267" cy="-160.281" rx="4.00002" ry="4.00002"/>
<polygon fill="#de3754" stroke="#de3754" points="388.423,-115.477 386.967,-104.608 385.784,-111.23 383.145,-106.983 383.145,-106.983 383.145,-106.983 385.784,-111.23 379.323,-109.359 388.423,-115.477 388.423,-115.477"/>
</g>
</g>
</svg>
