<?xml version="1.0" encoding="UTF-8" standalone="no"?>
<!DOCTYPE svg PUBLIC "-//W3C//DTD SVG 1.1//EN"
 "http://www.w3.org/Graphics/SVG/1.1/DTD/svg11.dtd">
<!-- Generated by graphviz version 2.38.0 (20140413.2041)
 -->
<!-- Title: models_diagram Pages: 1 -->
<svg width="1884pt" height="509pt"
 viewBox="0.00 0.00 1884.07 509.00" xmlns="http://www.w3.org/2000/svg" xmlns:xlink="http://www.w3.org/1999/xlink">
<g id="graph0" class="graph" transform="scale(1 1) rotate(0) translate(4 505)">
<title>models_diagram</title>
<polygon fill="none" stroke="none" points="-4,4 -4,-505 1880.07,-505 1880.07,4 -4,4"/>
<!-- _diagram_info -->
<g id="node1" class="node"><title>_diagram_info</title>
<text text-anchor="start" x="8" y="-430.6" font-family="Times,serif" font-size="13.00">Models diagram</text>
<text text-anchor="start" x="8" y="-417.6" font-family="Times,serif" font-size="13.00">Date: Nov 13 2015 &#45; 15:43</text>
<text text-anchor="start" x="8" y="-404.6" font-family="Times,serif" font-size="13.00">Migration version: 20151112032659</text>
<text text-anchor="start" x="8" y="-391.6" font-family="Times,serif" font-size="13.00">Generated by RailRoady 1.4.1</text>
<text text-anchor="start" x="8" y="-378.6" font-family="Times,serif" font-size="13.00">http://railroady.prestonlee.com</text>
</g>
<!-- Ability -->
<g id="node2" class="node"><title>Ability</title>
<polygon fill="none" stroke="black" points="224.377,-386.5 224.377,-430.5 280.046,-430.5 280.046,-386.5 224.377,-386.5"/>
<text text-anchor="middle" x="252.212" y="-415.3" font-family="Times,serif" font-size="14.00">Ability</text>
<polyline fill="none" stroke="black" points="224.377,-408.5 280.046,-408.5 "/>
<text text-anchor="middle" x="252.212" y="-393.3" font-family="Times,serif" font-size="14.00"> </text>
</g>
<!-- Category -->
<g id="node3" class="node"><title>Category</title>
<path fill="none" stroke="black" d="M310.349,-365.5C310.349,-365.5 534.074,-365.5 534.074,-365.5 540.074,-365.5 546.074,-371.5 546.074,-377.5 546.074,-377.5 546.074,-439.5 546.074,-439.5 546.074,-445.5 540.074,-451.5 534.074,-451.5 534.074,-451.5 310.349,-451.5 310.349,-451.5 304.349,-451.5 298.349,-445.5 298.349,-439.5 298.349,-439.5 298.349,-377.5 298.349,-377.5 298.349,-371.5 304.349,-365.5 310.349,-365.5"/>
<text text-anchor="middle" x="422.212" y="-436.3" font-family="Times,serif" font-size="14.00">Category</text>
<polyline fill="none" stroke="black" points="298.349,-429.5 546.074,-429.5 "/>
<text text-anchor="start" x="306.349" y="-414.3" font-family="Times,serif" font-size="14.00">id :integer</text>
<text text-anchor="start" x="306.349" y="-400.3" font-family="Times,serif" font-size="14.00">title :character varying</text>
<text text-anchor="start" x="306.349" y="-386.3" font-family="Times,serif" font-size="14.00">created_at :timestamp without time zone</text>
<text text-anchor="start" x="306.349" y="-372.3" font-family="Times,serif" font-size="14.00">updated_at :timestamp without time zone</text>
</g>
<!-- Post -->
<g id="node9" class="node"><title>Post</title>
<path fill="none" stroke="black" d="M424.349,-151.5C424.349,-151.5 648.074,-151.5 648.074,-151.5 654.074,-151.5 660.074,-157.5 660.074,-163.5 660.074,-163.5 660.074,-267.5 660.074,-267.5 660.074,-273.5 654.074,-279.5 648.074,-279.5 648.074,-279.5 424.349,-279.5 424.349,-279.5 418.349,-279.5 412.349,-273.5 412.349,-267.5 412.349,-267.5 412.349,-163.5 412.349,-163.5 412.349,-157.5 418.349,-151.5 424.349,-151.5"/>
<text text-anchor="middle" x="536.212" y="-264.3" font-family="Times,serif" font-size="14.00">Post</text>
<polyline fill="none" stroke="black" points="412.349,-257.5 660.074,-257.5 "/>
<text text-anchor="start" x="420.349" y="-242.3" font-family="Times,serif" font-size="14.00">id :integer</text>
<text text-anchor="start" x="420.349" y="-228.3" font-family="Times,serif" font-size="14.00">title :character varying</text>
<text text-anchor="start" x="420.349" y="-214.3" font-family="Times,serif" font-size="14.00">body :text</text>
<text text-anchor="start" x="420.349" y="-200.3" font-family="Times,serif" font-size="14.00">created_at :timestamp without time zone</text>
<text text-anchor="start" x="420.349" y="-186.3" font-family="Times,serif" font-size="14.00">updated_at :timestamp without time zone</text>
<text text-anchor="start" x="420.349" y="-172.3" font-family="Times,serif" font-size="14.00">user_id :integer</text>
<text text-anchor="start" x="420.349" y="-158.3" font-family="Times,serif" font-size="14.00">category_id :integer</text>
</g>
<!-- Category&#45;&gt;Post -->
<g id="edge1" class="edge"><title>Category&#45;&gt;Post</title>
<path fill="none" stroke="#f97fbd" d="M451.642,-358.192C464.287,-337.006 479.317,-311.824 493.174,-288.608"/>
<ellipse fill="none" stroke="#f97fbd" cx="449.562" cy="-361.676" rx="4.00002" ry="4.00002"/>
<polygon fill="#f97fbd" stroke="#f97fbd" points="493.294,-288.405 502.284,-282.125 495.857,-284.112 498.42,-279.818 498.42,-279.818 498.42,-279.818 495.857,-284.112 494.555,-277.512 493.294,-288.405 493.294,-288.405"/>
</g>
<!-- Ckeditor::Asset -->
<g id="node4" class="node"><title>Ckeditor::Asset</title>
<path fill="none" stroke="black" d="M842.349,-316.5C842.349,-316.5 1066.07,-316.5 1066.07,-316.5 1072.07,-316.5 1078.07,-322.5 1078.07,-328.5 1078.07,-328.5 1078.07,-488.5 1078.07,-488.5 1078.07,-494.5 1072.07,-500.5 1066.07,-500.5 1066.07,-500.5 842.349,-500.5 842.349,-500.5 836.349,-500.5 830.349,-494.5 830.349,-488.5 830.349,-488.5 830.349,-328.5 830.349,-328.5 830.349,-322.5 836.349,-316.5 842.349,-316.5"/>
<text text-anchor="middle" x="954.212" y="-485.3" font-family="Times,serif" font-size="14.00">Ckeditor::Asset</text>
<polyline fill="none" stroke="black" points="830.349,-478.5 1078.07,-478.5 "/>
<text text-anchor="start" x="838.349" y="-463.3" font-family="Times,serif" font-size="14.00">id :integer</text>
<text text-anchor="start" x="838.349" y="-449.3" font-family="Times,serif" font-size="14.00">data_file_name :character varying</text>
<text text-anchor="start" x="838.349" y="-435.3" font-family="Times,serif" font-size="14.00">data_content_type :character varying</text>
<text text-anchor="start" x="838.349" y="-421.3" font-family="Times,serif" font-size="14.00">data_file_size :integer</text>
<text text-anchor="start" x="838.349" y="-407.3" font-family="Times,serif" font-size="14.00">assetable_id :integer</text>
<text text-anchor="start" x="838.349" y="-393.3" font-family="Times,serif" font-size="14.00">assetable_type :character varying(30)</text>
<text text-anchor="start" x="838.349" y="-379.3" font-family="Times,serif" font-size="14.00">type :character varying(30)</text>
<text text-anchor="start" x="838.349" y="-365.3" font-family="Times,serif" font-size="14.00">width :integer</text>
<text text-anchor="start" x="838.349" y="-351.3" font-family="Times,serif" font-size="14.00">height :integer</text>
<text text-anchor="start" x="838.349" y="-337.3" font-family="Times,serif" font-size="14.00">created_at :timestamp without time zone</text>
<text text-anchor="start" x="838.349" y="-323.3" font-family="Times,serif" font-size="14.00">updated_at :timestamp without time zone</text>
</g>
<!-- Ckeditor::AttachmentFile -->
<g id="node5" class="node"><title>Ckeditor::AttachmentFile</title>
<path fill="none" stroke="black" d="M1108.35,-316.5C1108.35,-316.5 1332.07,-316.5 1332.07,-316.5 1338.07,-316.5 1344.07,-322.5 1344.07,-328.5 1344.07,-328.5 1344.07,-488.5 1344.07,-488.5 1344.07,-494.5 1338.07,-500.5 1332.07,-500.5 1332.07,-500.5 1108.35,-500.5 1108.35,-500.5 1102.35,-500.5 1096.35,-494.5 1096.35,-488.5 1096.35,-488.5 1096.35,-328.5 1096.35,-328.5 1096.35,-322.5 1102.35,-316.5 1108.35,-316.5"/>
<text text-anchor="middle" x="1220.21" y="-485.3" font-family="Times,serif" font-size="14.00">Ckeditor::AttachmentFile</text>
<polyline fill="none" stroke="black" points="1096.35,-478.5 1344.07,-478.5 "/>
<text text-anchor="start" x="1104.35" y="-463.3" font-family="Times,serif" font-size="14.00">id :integer</text>
<text text-anchor="start" x="1104.35" y="-449.3" font-family="Times,serif" font-size="14.00">data_file_name :character varying</text>
<text text-anchor="start" x="1104.35" y="-435.3" font-family="Times,serif" font-size="14.00">data_content_type :character varying</text>
<text text-anchor="start" x="1104.35" y="-421.3" font-family="Times,serif" font-size="14.00">data_file_size :integer</text>
<text text-anchor="start" x="1104.35" y="-407.3" font-family="Times,serif" font-size="14.00">assetable_id :integer</text>
<text text-anchor="start" x="1104.35" y="-393.3" font-family="Times,serif" font-size="14.00">assetable_type :character varying(30)</text>
<text text-anchor="start" x="1104.35" y="-379.3" font-family="Times,serif" font-size="14.00">type :character varying(30)</text>
<text text-anchor="start" x="1104.35" y="-365.3" font-family="Times,serif" font-size="14.00">width :integer</text>
<text text-anchor="start" x="1104.35" y="-351.3" font-family="Times,serif" font-size="14.00">height :integer</text>
<text text-anchor="start" x="1104.35" y="-337.3" font-family="Times,serif" font-size="14.00">created_at :timestamp without time zone</text>
<text text-anchor="start" x="1104.35" y="-323.3" font-family="Times,serif" font-size="14.00">updated_at :timestamp without time zone</text>
</g>
<!-- Ckeditor::Picture -->
<g id="node6" class="node"><title>Ckeditor::Picture</title>
<path fill="none" stroke="black" d="M1374.35,-316.5C1374.35,-316.5 1598.07,-316.5 1598.07,-316.5 1604.07,-316.5 1610.07,-322.5 1610.07,-328.5 1610.07,-328.5 1610.07,-488.5 1610.07,-488.5 1610.07,-494.5 1604.07,-500.5 1598.07,-500.5 1598.07,-500.5 1374.35,-500.5 1374.35,-500.5 1368.35,-500.5 1362.35,-494.5 1362.35,-488.5 1362.35,-488.5 1362.35,-328.5 1362.35,-328.5 1362.35,-322.5 1368.35,-316.5 1374.35,-316.5"/>
<text text-anchor="middle" x="1486.21" y="-485.3" font-family="Times,serif" font-size="14.00">Ckeditor::Picture</text>
<polyline fill="none" stroke="black" points="1362.35,-478.5 1610.07,-478.5 "/>
<text text-anchor="start" x="1370.35" y="-463.3" font-family="Times,serif" font-size="14.00">id :integer</text>
<text text-anchor="start" x="1370.35" y="-449.3" font-family="Times,serif" font-size="14.00">data_file_name :character varying</text>
<text text-anchor="start" x="1370.35" y="-435.3" font-family="Times,serif" font-size="14.00">data_content_type :character varying</text>
<text text-anchor="start" x="1370.35" y="-421.3" font-family="Times,serif" font-size="14.00">data_file_size :integer</text>
<text text-anchor="start" x="1370.35" y="-407.3" font-family="Times,serif" font-size="14.00">assetable_id :integer</text>
<text text-anchor="start" x="1370.35" y="-393.3" font-family="Times,serif" font-size="14.00">assetable_type :character varying(30)</text>
<text text-anchor="start" x="1370.35" y="-379.3" font-family="Times,serif" font-size="14.00">type :character varying(30)</text>
<text text-anchor="start" x="1370.35" y="-365.3" font-family="Times,serif" font-size="14.00">width :integer</text>
<text text-anchor="start" x="1370.35" y="-351.3" font-family="Times,serif" font-size="14.00">height :integer</text>
<text text-anchor="start" x="1370.35" y="-337.3" font-family="Times,serif" font-size="14.00">created_at :timestamp without time zone</text>
<text text-anchor="start" x="1370.35" y="-323.3" font-family="Times,serif" font-size="14.00">updated_at :timestamp without time zone</text>
</g>
<!-- Comment -->
<g id="node7" class="node"><title>Comment</title>
<path fill="none" stroke="black" d="M500.349,-0.5C500.349,-0.5 724.074,-0.5 724.074,-0.5 730.074,-0.5 736.074,-6.5 736.074,-12.5 736.074,-12.5 736.074,-102.5 736.074,-102.5 736.074,-108.5 730.074,-114.5 724.074,-114.5 724.074,-114.5 500.349,-114.5 500.349,-114.5 494.349,-114.5 488.349,-108.5 488.349,-102.5 488.349,-102.5 488.349,-12.5 488.349,-12.5 488.349,-6.5 494.349,-0.5 500.349,-0.5"/>
<text text-anchor="middle" x="612.212" y="-99.3" font-family="Times,serif" font-size="14.00">Comment</text>
<polyline fill="none" stroke="black" points="488.349,-92.5 736.074,-92.5 "/>
<text text-anchor="start" x="496.349" y="-77.3" font-family="Times,serif" font-size="14.00">id :integer</text>
<text text-anchor="start" x="496.349" y="-63.3" font-family="Times,serif" font-size="14.00">body :text</text>
<text text-anchor="start" x="496.349" y="-49.3" font-family="Times,serif" font-size="14.00">created_at :timestamp without time zone</text>
<text text-anchor="start" x="496.349" y="-35.3" font-family="Times,serif" font-size="14.00">updated_at :timestamp without time zone</text>
<text text-anchor="start" x="496.349" y="-21.3" font-family="Times,serif" font-size="14.00">post_id :integer</text>
<text text-anchor="start" x="496.349" y="-7.3" font-family="Times,serif" font-size="14.00">user_id :integer</text>
</g>
<!-- Contact -->
<g id="node8" class="node"><title>Contact</title>
<path fill="none" stroke="black" d="M1640.35,-344.5C1640.35,-344.5 1864.07,-344.5 1864.07,-344.5 1870.07,-344.5 1876.07,-350.5 1876.07,-356.5 1876.07,-356.5 1876.07,-460.5 1876.07,-460.5 1876.07,-466.5 1870.07,-472.5 1864.07,-472.5 1864.07,-472.5 1640.35,-472.5 1640.35,-472.5 1634.35,-472.5 1628.35,-466.5 1628.35,-460.5 1628.35,-460.5 1628.35,-356.5 1628.35,-356.5 1628.35,-350.5 1634.35,-344.5 1640.35,-344.5"/>
<text text-anchor="middle" x="1752.21" y="-457.3" font-family="Times,serif" font-size="14.00">Contact</text>
<polyline fill="none" stroke="black" points="1628.35,-450.5 1876.07,-450.5 "/>
<text text-anchor="start" x="1636.35" y="-435.3" font-family="Times,serif" font-size="14.00">id :integer</text>
<text text-anchor="start" x="1636.35" y="-421.3" font-family="Times,serif" font-size="14.00">email :character varying</text>
<text text-anchor="start" x="1636.35" y="-407.3" font-family="Times,serif" font-size="14.00">name :character varying</text>
<text text-anchor="start" x="1636.35" y="-393.3" font-family="Times,serif" font-size="14.00">subject :character varying</text>
<text text-anchor="start" x="1636.35" y="-379.3" font-family="Times,serif" font-size="14.00">message :text</text>
<text text-anchor="start" x="1636.35" y="-365.3" font-family="Times,serif" font-size="14.00">created_at :timestamp without time zone</text>
<text text-anchor="start" x="1636.35" y="-351.3" font-family="Times,serif" font-size="14.00">updated_at :timestamp without time zone</text>
</g>
<!-- Post&#45;&gt;Comment -->
<g id="edge2" class="edge"><title>Post&#45;&gt;Comment</title>
<path fill="none" stroke="#33d443" d="M570.545,-144.026C573.836,-137.27 577.165,-130.438 580.43,-123.736"/>
<ellipse fill="none" stroke="#33d443" cx="568.657" cy="-147.903" rx="4.00002" ry="4.00002"/>
<polygon fill="#33d443" stroke="#33d443" points="580.455,-123.685 588.88,-116.666 582.644,-119.191 584.834,-114.696 584.834,-114.696 584.834,-114.696 582.644,-119.191 580.789,-112.725 580.455,-123.685 580.455,-123.685"/>
</g>
<!-- User -->
<g id="node10" class="node"><title>User</title>
<path fill="none" stroke="black" d="M576.349,-344.5C576.349,-344.5 800.074,-344.5 800.074,-344.5 806.074,-344.5 812.074,-350.5 812.074,-356.5 812.074,-356.5 812.074,-460.5 812.074,-460.5 812.074,-466.5 806.074,-472.5 800.074,-472.5 800.074,-472.5 576.349,-472.5 576.349,-472.5 570.349,-472.5 564.349,-466.5 564.349,-460.5 564.349,-460.5 564.349,-356.5 564.349,-356.5 564.349,-350.5 570.349,-344.5 576.349,-344.5"/>
<text text-anchor="middle" x="688.212" y="-457.3" font-family="Times,serif" font-size="14.00">User</text>
<polyline fill="none" stroke="black" points="564.349,-450.5 812.074,-450.5 "/>
<text text-anchor="start" x="572.349" y="-435.3" font-family="Times,serif" font-size="14.00">id :integer</text>
<text text-anchor="start" x="572.349" y="-421.3" font-family="Times,serif" font-size="14.00">first_name :character varying</text>
<text text-anchor="start" x="572.349" y="-407.3" font-family="Times,serif" font-size="14.00">last_name :character varying</text>
<text text-anchor="start" x="572.349" y="-393.3" font-family="Times,serif" font-size="14.00">email :character varying</text>
<text text-anchor="start" x="572.349" y="-379.3" font-family="Times,serif" font-size="14.00">password_digest :character varying</text>
<text text-anchor="start" x="572.349" y="-365.3" font-family="Times,serif" font-size="14.00">created_at :timestamp without time zone</text>
<text text-anchor="start" x="572.349" y="-351.3" font-family="Times,serif" font-size="14.00">updated_at :timestamp without time zone</text>
</g>
<!-- User&#45;&gt;Comment -->
<g id="edge4" class="edge"><title>User&#45;&gt;Comment</title>
<path fill="none" stroke="#910ffc" d="M691.881,-336.256C692.459,-283.795 688.762,-211.387 669.212,-151 666.205,-141.713 662.085,-132.401 657.424,-123.453"/>
<ellipse fill="none" stroke="#910ffc" cx="691.815" cy="-340.5" rx="4" ry="4"/>
<polygon fill="#910ffc" stroke="#910ffc" points="657.403,-123.414 656.552,-112.482 655.003,-119.028 652.604,-114.641 652.604,-114.641 652.604,-114.641 655.003,-119.028 648.656,-116.8 657.403,-123.414 657.403,-123.414"/>
</g>
<!-- User&#45;&gt;Post -->
<g id="edge3" class="edge"><title>User&#45;&gt;Post</title>
<path fill="none" stroke="#1a5543" d="M632.907,-338.006C619.826,-321.568 605.859,-304.017 592.724,-287.512"/>
<ellipse fill="none" stroke="#1a5543" cx="635.529" cy="-341.3" rx="4.00002" ry="4.00002"/>
<polygon fill="#1a5543" stroke="#1a5543" points="592.578,-287.328 589.872,-276.702 589.464,-283.416 586.351,-279.504 586.351,-279.504 586.351,-279.504 589.464,-283.416 582.83,-282.306 592.578,-287.328 592.578,-287.328"/>
</g>
</g>
</svg>
